<?xml version="1.0" encoding="utf-8"?>
<!-- Generator: Adobe Illustrator 27.5.0, SVG Export Plug-In . SVG Version: 6.00 Build 0)  -->
<svg version="1.1" xmlns="http://www.w3.org/2000/svg" xmlns:xlink="http://www.w3.org/1999/xlink" x="0px" y="0px"
	 viewBox="0 0 3710 3710" style="enable-background:new 0 0 3710 3710;" xml:space="preserve">
<g id="Background">
	<g>
		<g>
			<rect style="fill:#FFFFFF;" width="3710" height="3710"/>
		</g>
	</g>
</g>
<g id="Illustration">
	<g>
		
			<linearGradient id="SVGID_1_" gradientUnits="userSpaceOnUse" x1="3376.7034" y1="3529.7349" x2="1356.0778" y2="1348.7417" gradientTransform="matrix(0.9902 -0.0109 0.0109 0.9858 -29.7832 55.3561)">
			<stop  offset="0" style="stop-color:#DAE3FE"/>
			<stop  offset="1" style="stop-color:#E9EFFD"/>
		</linearGradient>
		<path style="fill:url(#SVGID_1_);" d="M3064.341,2274.326c-268.881,640.812-994.221,922.798-1565.427,882.401
			c-155.962-11.03-469.761-33.223-717.088-259.429c-474.974-434.415-412.731-1354.126,31.322-1900.106
			c57.185-70.311,453.18-541.528,1078.375-542.192c457.734-0.485,781.804,251.618,821.218,283.036
			c49.791,39.689,159.684,134.097,259.45,284.692C3206.604,1376.576,3232.364,1873.882,3064.341,2274.326z"/>
		
			<linearGradient id="SVGID_00000099639102525525278910000018256561800641292195_" gradientUnits="userSpaceOnUse" x1="2124.627" y1="1064.7712" x2="1983.4286" y2="1622.8387">
			<stop  offset="0" style="stop-color:#09005D"/>
			<stop  offset="1" style="stop-color:#1A0F91"/>
		</linearGradient>
		<path style="fill:url(#SVGID_00000099639102525525278910000018256561800641292195_);" d="M658.601,2239.721
			c-117.715,0-198.603,122.988-153.603,234.928C687.528,2928.706,1191.33,3255,1784.273,3255s1096.745-326.294,1279.275-780.351
			c45-111.94-35.888-234.928-153.603-234.928H658.601z"/>
		<g>
			<path style="fill:#BDD0FB;" d="M1142.234,733.261c-0.192-11.817-8.56-21.326-18.816-21.326H501.327
				c-10.394,0-21.434,9.802-21.434,21.78v1673.118c0,8.94,4.395,17.514,9.888,23.828c5.494,6.313,13.595,9.847,21.353,9.823
				l628.905-1.978c7.826-0.024,15.478-3.668,20.952-10.114c5.474-6.445,8.556-15.176,8.409-24.193L1142.234,733.261z"/>
			<g style="opacity:0.52;">
				<polygon style="fill:#FFFFFF;" points="784.976,830.506 581.475,829.694 581.551,800.352 784.824,801.092 				"/>
				<polygon style="fill:#FFFFFF;" points="785.533,938.583 581.196,937.509 581.273,907.925 785.38,908.928 				"/>
				<polygon style="fill:#FFFFFF;" points="786.096,1047.554 580.915,1046.213 580.992,1016.385 785.942,1017.653 				"/>
				<polygon style="fill:#FFFFFF;" points="786.663,1157.432 580.632,1155.819 580.709,1125.743 786.508,1127.282 				"/>
				<polygon style="fill:#FFFFFF;" points="787.235,1268.223 580.346,1266.333 580.425,1236.008 787.078,1237.821 				"/>
				<polygon style="fill:#FFFFFF;" points="788.393,1492.598 579.767,1490.143 579.847,1459.307 788.234,1461.683 				"/>
				<polygon style="fill:#FFFFFF;" points="790.168,1836.323 578.88,1832.983 578.962,1801.358 790.004,1804.615 				"/>
				<polygon style="fill:#FFFFFF;" points="787.812,1379.941 580.058,1377.771 580.137,1347.192 787.654,1349.285 				"/>
				<polygon style="fill:#FFFFFF;" points="788.98,1606.207 579.474,1603.462 579.555,1572.366 788.819,1575.032 				"/>
				<polygon style="fill:#FFFFFF;" points="789.571,1720.778 579.179,1717.738 579.26,1686.379 789.409,1689.338 				"/>
				<polygon style="fill:#FFFFFF;" points="790.769,1952.856 578.58,1949.211 578.662,1917.315 790.604,1920.876 				"/>
				<polygon style="fill:#FFFFFF;" points="791.376,2070.389 578.276,2066.434 578.36,2034.265 791.209,2038.135 				"/>
				<polygon style="fill:#FFFFFF;" points="791.988,2188.938 577.971,2184.668 578.055,2152.221 791.82,2156.405 				"/>
				<polygon style="fill:#FFFFFF;" points="792.606,2308.51 577.662,2303.92 577.747,2271.193 792.436,2275.695 				"/>
				<polygon style="fill:#FFFFFF;" points="1051.78,831.57 847.003,830.753 846.781,801.318 1051.328,802.063 				"/>
				<polygon style="fill:#FFFFFF;" points="1053.441,939.992 847.817,938.911 847.593,909.233 1052.985,910.241 				"/>
				<polygon style="fill:#FFFFFF;" points="1055.116,1049.314 848.637,1047.964 848.412,1018.04 1054.656,1019.316 				"/>
				<polygon style="fill:#FFFFFF;" points="1056.805,1159.547 849.464,1157.924 849.237,1127.751 1056.341,1129.299 				"/>
				<polygon style="fill:#FFFFFF;" points="1058.507,1270.7 850.299,1268.799 850.07,1238.374 1058.04,1240.199 				"/>
				<polygon style="fill:#FFFFFF;" points="1061.956,1495.818 851.988,1493.346 851.755,1462.408 1061.481,1464.8 				"/>
				<polygon style="fill:#FFFFFF;" points="1067.24,1840.703 854.576,1837.341 854.337,1805.608 1066.752,1808.886 				"/>
				<polygon style="fill:#FFFFFF;" points="1060.225,1382.786 851.14,1380.602 850.909,1349.923 1059.753,1352.029 				"/>
				<polygon style="fill:#FFFFFF;" points="1063.703,1609.808 852.843,1607.044 852.609,1575.845 1063.224,1578.527 				"/>
				<polygon style="fill:#FFFFFF;" points="1065.464,1724.765 853.706,1721.704 853.469,1690.239 1064.981,1693.218 				"/>
				<polygon style="fill:#FFFFFF;" points="1069.031,1957.636 855.454,1953.967 855.213,1921.962 1068.54,1925.546 				"/>
				<polygon style="fill:#FFFFFF;" points="1070.838,2075.576 856.339,2071.595 856.096,2039.314 1070.342,2043.209 				"/>
				<polygon style="fill:#FFFFFF;" points="1072.661,2194.538 857.231,2190.239 856.986,2157.68 1072.161,2161.891 				"/>
				<polygon style="fill:#FFFFFF;" points="1074.499,2314.53 858.132,2309.91 857.884,2277.068 1073.995,2281.599 				"/>
			</g>
		</g>
		<g>
			<path style="fill:#BDD0FB;" d="M2563.576,915.376c-0.177-12.06-4.406-23.531-11.74-31.846
				c-7.334-8.316-17.161-12.78-27.281-12.396l-818.928,31.171c-20.844,0.794-37.215,21.536-36.594,46.369l40.407,1615.586
				c0.613,24.517,17.579,43.944,38.17,43.706l807.897-2.988c10.08-0.117,14.273-11.33,21.303-19.935
				c7.031-8.606,10.886-20.198,10.711-32.204L2563.576,915.376z"/>
			<g style="opacity:0.45;">
				<polygon style="fill:#FFFFFF;" points="1809.259,1057.697 1807.981,1017.28 2074.358,1003.085 2075.55,1043.595 				"/>
				<polygon style="fill:#FFFFFF;" points="1812.842,1170.929 1811.567,1130.588 2077.703,1116.654 2078.892,1157.088 				"/>
				<polygon style="fill:#FFFFFF;" points="1816.419,1283.953 1815.146,1243.687 2081.041,1230.013 2082.228,1270.371 				"/>
				<polygon style="fill:#FFFFFF;" points="1819.989,1396.762 1818.719,1356.571 2084.372,1343.157 2085.558,1383.441 				"/>
				<polygon style="fill:#FFFFFF;" points="1823.552,1509.365 1822.284,1469.249 2087.698,1456.09 2088.881,1496.299 				"/>
				<polygon style="fill:#FFFFFF;" points="1830.659,1733.94 1829.396,1693.973 2094.33,1681.328 2095.509,1721.387 				"/>
				<polygon style="fill:#FFFFFF;" points="1841.27,2069.24 1840.014,2029.495 2104.233,2017.615 2105.405,2057.45 				"/>
				<polygon style="fill:#FFFFFF;" points="1827.109,1621.756 1825.844,1581.714 2091.018,1568.816 2092.198,1608.95 				"/>
				<polygon style="fill:#FFFFFF;" points="1834.203,1845.914 1832.942,1806.02 2097.637,1793.635 2098.814,1833.618 				"/>
				<polygon style="fill:#FFFFFF;" points="1837.74,1957.679 1836.481,1917.86 2100.938,1905.728 2102.112,1945.638 				"/>
				<polygon style="fill:#FFFFFF;" points="1844.794,2180.592 1843.54,2140.92 2107.521,2129.295 2108.691,2169.057 				"/>
				<polygon style="fill:#FFFFFF;" points="1848.311,2291.74 1847.059,2252.142 2110.804,2240.766 2111.971,2280.454 				"/>
				<polygon style="fill:#FFFFFF;" points="1851.822,2402.681 1850.573,2363.155 2114.081,2352.034 2115.246,2391.648 				"/>
				<polygon style="fill:#FFFFFF;" points="1855.327,2513.416 1854.079,2473.964 2117.351,2463.093 2118.514,2502.634 				"/>
				<polygon style="fill:#FFFFFF;" points="2156.693,1039.296 2155.528,998.757 2423.432,984.48 2424.51,1025.113 				"/>
				<polygon style="fill:#FFFFFF;" points="2159.962,1152.871 2158.799,1112.408 2426.458,1098.391 2427.534,1138.948 				"/>
				<polygon style="fill:#FFFFFF;" points="2163.224,1266.231 2162.063,1225.844 2429.479,1212.092 2430.553,1252.572 				"/>
				<polygon style="fill:#FFFFFF;" points="2166.48,1379.382 2165.321,1339.07 2432.494,1325.577 2433.566,1365.981 				"/>
				<polygon style="fill:#FFFFFF;" points="2169.729,1492.319 2168.573,1452.082 2435.503,1438.851 2436.573,1479.18 				"/>
				<polygon style="fill:#FFFFFF;" points="2176.212,1717.563 2175.06,1677.477 2441.504,1664.763 2442.57,1704.942 				"/>
				<polygon style="fill:#FFFFFF;" points="2185.889,2053.859 2184.743,2013.996 2450.465,2002.051 2451.525,2042.005 				"/>
				<polygon style="fill:#FFFFFF;" points="2172.974,1605.045 2171.819,1564.884 2438.507,1551.911 2439.574,1592.165 				"/>
				<polygon style="fill:#FFFFFF;" points="2179.444,1829.87 2178.293,1789.858 2444.497,1777.402 2445.561,1817.505 				"/>
				<polygon style="fill:#FFFFFF;" points="2182.67,1941.97 2181.521,1902.033 2447.483,1889.83 2448.546,1929.858 				"/>
				<polygon style="fill:#FFFFFF;" points="2189.103,2165.543 2187.959,2125.754 2453.44,2114.061 2454.499,2153.94 				"/>
				<polygon style="fill:#FFFFFF;" points="2192.311,2277.018 2191.169,2237.302 2456.41,2225.865 2457.467,2265.67 				"/>
				<polygon style="fill:#FFFFFF;" points="2195.513,2388.285 2194.373,2348.643 2459.375,2337.459 2460.429,2377.19 				"/>
				<polygon style="fill:#FFFFFF;" points="2198.709,2499.349 2197.572,2459.781 2462.334,2448.845 2463.386,2488.503 				"/>
			</g>
		</g>
		<g>
			<path style="fill:#91B3FA;" d="M1808.611,651.281c-0.331-18.635-14.688-33.97-32.288-33.97h-665.205
				c-17.835,0-35.35,16.134-35.35,35.023V2340.6c0,9.087,4.943,17.801,11.018,24.217c6.075,6.416,15.076,10.008,23.657,9.983
				l695.509-2.011c8.654-0.025,17.127-3.728,23.181-10.278c6.053-6.551,9.466-15.606,9.303-24.77L1808.611,651.281z"/>
			<g>
				<g>
					<polygon style="fill:#BDD0FB;" points="1318.722,816.253 1129.22,815.984 1127.717,713.112 1317.403,713.112 					"/>
					<polygon style="fill:#BDD0FB;" points="1531.133,816.201 1341.821,815.932 1340.524,713.112 1530.02,713.112 					"/>
					<polygon style="fill:#BDD0FB;" points="1743.33,816.15 1554.208,815.88 1553.118,713.112 1742.423,713.112 					"/>
				</g>
				<g>
					<polygon style="fill:#BDD0FB;" points="1321.09,1000.902 1131.919,1001.031 1130.42,898.831 1319.776,898.749 					"/>
					<polygon style="fill:#BDD0FB;" points="1533.131,1000.759 1344.149,1000.887 1342.857,898.739 1532.022,898.656 					"/>
					<polygon style="fill:#BDD0FB;" points="1744.959,1000.616 1556.167,1000.743 1555.08,898.646 1744.055,898.563 					"/>
				</g>
				<g>
					<polygon style="fill:#BDD0FB;" points="1323.45,1184.284 1134.607,1184.494 1133.114,1082.649 1322.141,1082.484 					"/>
					<polygon style="fill:#BDD0FB;" points="1535.123,1184.048 1346.469,1184.258 1345.181,1082.464 1534.017,1082.299 					"/>
					<polygon style="fill:#BDD0FB;" points="1746.583,1183.813 1558.118,1184.023 1557.035,1082.28 1745.681,1082.115 					"/>
				</g>
				<g>
					<polygon style="fill:#BDD0FB;" points="1325.803,1367.03 1137.287,1367.321 1135.8,1265.828 1324.497,1265.582 					"/>
					<polygon style="fill:#BDD0FB;" points="1537.107,1366.703 1348.781,1366.994 1347.497,1265.552 1536.006,1265.306 					"/>
					<polygon style="fill:#BDD0FB;" points="1748.2,1366.377 1560.062,1366.668 1558.983,1265.277 1747.302,1265.031 					"/>
				</g>
				<g>
					<polygon style="fill:#BDD0FB;" points="1328.146,1549.144 1139.958,1549.516 1138.475,1448.374 1326.845,1448.047 					"/>
					<polygon style="fill:#BDD0FB;" points="1539.084,1548.727 1351.085,1549.099 1349.806,1448.007 1537.987,1447.68 					"/>
					<polygon style="fill:#BDD0FB;" points="1749.813,1548.311 1562,1548.682 1560.924,1447.641 1748.918,1447.314 					"/>
				</g>
				<g>
					<polygon style="fill:#BDD0FB;" points="1330.482,1730.631 1142.62,1731.083 1141.142,1630.29 1329.185,1629.882 					"/>
					<polygon style="fill:#BDD0FB;" points="1541.056,1730.124 1353.38,1730.575 1352.106,1629.833 1539.961,1629.425 					"/>
					<polygon style="fill:#BDD0FB;" points="1751.42,1729.618 1563.932,1730.069 1562.859,1629.376 1750.527,1628.969 					"/>
				</g>
				<g>
					<polygon style="fill:#BDD0FB;" points="1332.809,1911.492 1145.272,1912.023 1143.799,1811.577 1331.517,1811.09 					"/>
					<polygon style="fill:#BDD0FB;" points="1543.02,1910.896 1355.668,1911.427 1354.399,1811.031 1541.929,1810.544 					"/>
					<polygon style="fill:#BDD0FB;" points="1753.021,1910.301 1565.856,1910.832 1564.787,1810.485 1752.132,1809.998 					"/>
				</g>
				<g>
					<polygon style="fill:#BDD0FB;" points="1335.129,2091.731 1147.915,2092.342 1146.448,1992.242 1333.841,1991.674 					"/>
					<polygon style="fill:#BDD0FB;" points="1544.977,2091.047 1357.949,2091.657 1356.683,1991.605 1543.891,1991.04 					"/>
					<polygon style="fill:#BDD0FB;" points="1754.617,2090.364 1567.774,2090.973 1566.709,1990.971 1753.73,1990.405 					"/>
				</g>
				<g>
					<polygon style="fill:#BDD0FB;" points="1337.441,2271.352 1150.549,2272.042 1149.087,2172.284 1336.157,2171.639 					"/>
					<polygon style="fill:#BDD0FB;" points="1546.927,2270.58 1360.221,2271.268 1358.959,2171.56 1545.845,2170.915 					"/>
					<polygon style="fill:#BDD0FB;" points="1756.207,2269.809 1569.685,2270.496 1568.624,2170.837 1755.323,2170.193 					"/>
				</g>
			</g>
		</g>
		<g>
			<path style="fill:#91B3FA;" d="M3115.406,795.901c-0.138-10.08-4.274-19.676-11.469-26.609
				c-7.198-6.934-16.843-10.616-26.749-10.213l-752.692,30.689c-12.919,0.526-23.035,11.492-22.729,24.637l38.208,1636.325
				l761.079-9.443c9.757-0.121,19.065-4.182,25.874-11.29c6.809-7.106,10.56-16.676,10.424-26.597L3115.406,795.901z"/>
			<g style="opacity:0.4;">
				<g>
					<polygon style="fill:#FFFFFF;" points="2507.139,1050.939 2395.921,1050.902 2390.387,887.415 2502.319,887.415 					"/>
					<polygon style="fill:#FFFFFF;" points="2680.455,1050.502 2574.65,1050.452 2570.262,887.415 2676.742,887.415 					"/>
					<polygon style="fill:#FFFFFF;" points="2857.621,1050.057 2747.605,1050.017 2744.32,887.415 2855.034,887.415 					"/>
					<polygon style="fill:#FFFFFF;" points="3033.818,1049.613 2924.403,1049.573 2922.24,887.415 3032.344,887.415 					"/>
				</g>
				<g>
					<polygon style="fill:#FFFFFF;" points="2514.991,1316.897 2404.936,1317.625 2399.516,1157.818 2510.27,1157.359 					"/>
					<polygon style="fill:#FFFFFF;" points="2686.503,1315.762 2581.799,1316.455 2577.5,1157.08 2682.866,1156.642 					"/>
					<polygon style="fill:#FFFFFF;" points="2861.835,1314.602 2752.957,1315.322 2749.739,1156.365 2859.301,1155.91 					"/>
					<polygon style="fill:#FFFFFF;" points="3036.217,1313.448 2927.929,1314.165 2925.809,1155.634 3034.774,1155.182 					"/>
				</g>
				<g>
					<polygon style="fill:#FFFFFF;" points="2522.683,1576.805 2413.766,1577.963 2408.456,1421.418 2518.058,1420.518 					"/>
					<polygon style="fill:#FFFFFF;" points="2692.428,1575 2588.801,1576.102 2584.59,1419.971 2688.865,1419.114 					"/>
					<polygon style="fill:#FFFFFF;" points="2865.964,1573.155 2758.2,1574.301 2755.047,1418.571 2863.481,1417.679 					"/>
					<polygon style="fill:#FFFFFF;" points="3038.569,1571.32 2931.383,1572.46 2929.306,1417.139 3037.155,1416.253 					"/>
				</g>
				<g>
					<polygon style="fill:#FFFFFF;" points="2530.219,1831.46 2422.417,1833.031 2417.214,1679.649 2525.687,1678.326 					"/>
					<polygon style="fill:#FFFFFF;" points="2698.234,1829.012 2595.662,1830.507 2591.536,1677.522 2694.742,1676.263 					"/>
					<polygon style="fill:#FFFFFF;" points="2870.01,1826.51 2763.338,1828.064 2760.248,1675.464 2867.577,1674.154 					"/>
					<polygon style="fill:#FFFFFF;" points="3040.873,1824.021 2934.767,1825.566 2932.732,1673.359 3039.488,1672.057 					"/>
				</g>
				<g>
					<polygon style="fill:#FFFFFF;" points="2537.604,2081.02 2430.894,2082.986 2425.796,1932.673 2533.163,1930.943 					"/>
					<polygon style="fill:#FFFFFF;" points="2703.923,2077.955 2602.385,2079.826 2598.342,1929.893 2700.502,1928.248 					"/>
					<polygon style="fill:#FFFFFF;" points="2873.974,2074.822 2768.373,2076.768 2765.345,1927.204 2871.59,1925.492 					"/>
					<polygon style="fill:#FFFFFF;" points="3043.132,2071.704 2938.085,2073.64 2936.09,1924.453 3041.774,1922.751 					"/>
				</g>
				<g>
					<polygon style="fill:#FFFFFF;" points="2544.843,2325.636 2439.204,2327.982 2434.207,2180.645 2540.49,2178.527 					"/>
					<polygon style="fill:#FFFFFF;" points="2709.501,2321.979 2608.977,2324.211 2605.013,2177.24 2706.146,2175.224 					"/>
					<polygon style="fill:#FFFFFF;" points="2877.862,2318.24 2773.308,2320.562 2770.34,2173.945 2875.524,2171.848 					"/>
					<polygon style="fill:#FFFFFF;" points="3045.346,2314.519 2941.337,2316.83 2939.381,2170.575 3044.015,2168.489 					"/>
				</g>
			</g>
		</g>
		<g>
			
				<linearGradient id="SVGID_00000084506826287683997480000002869100737526070914_" gradientUnits="userSpaceOnUse" x1="2917.1953" y1="1586.1616" x2="3135.7151" y2="1028.0951">
				<stop  offset="0" style="stop-color:#FF928E"/>
				<stop  offset="1" style="stop-color:#FEB3B1"/>
			</linearGradient>
			<path style="fill:url(#SVGID_00000084506826287683997480000002869100737526070914_);" d="M2896.734,1323.674
				c0,0-164.905,211.133,23.24,425.872l70.734-6.591c0,0-136.162-218.632-75.515-392.911l100.197,7.315l55.408-36.115
				L2896.734,1323.674z"/>
			<g>
				
					<linearGradient id="SVGID_00000137096217607240825160000003657157023356893345_" gradientUnits="userSpaceOnUse" x1="5340.4624" y1="-10807.9658" x2="4876.5278" y2="-10054.9111" gradientTransform="matrix(-1 0 0 1 824.7358 0)">
					<stop  offset="0" style="stop-color:#E1473D"/>
					<stop  offset="1" style="stop-color:#E9605A"/>
				</linearGradient>
				<path style="fill:url(#SVGID_00000137096217607240825160000003657157023356893345_);" d="M2455.317,849.01l684.957-40.429
					c13.432-0.793,24.75,8.477,25.145,20.594l15.471,474.157c0.398,12.198-10.397,22.511-23.931,22.837
					c-124.012,2.979-674.592,16.293-698.836,18.445c-23.958,2.127-25.759-379.311-25.839-473.444
					C2432.275,859.533,2442.429,849.771,2455.317,849.01z"/>
			</g>
			
				<linearGradient id="SVGID_00000101080029495508599990000013954100663893178032_" gradientUnits="userSpaceOnUse" x1="2706.3596" y1="2587.9402" x2="2956.1216" y2="2587.9402" gradientTransform="matrix(1 0 0 1 280.6909 0)">
				<stop  offset="0" style="stop-color:#FF928E"/>
				<stop  offset="1" style="stop-color:#FEB3B1"/>
			</linearGradient>
			<path style="fill:url(#SVGID_00000101080029495508599990000013954100663893178032_);" d="M2987.05,2357.373
				c0,0,133.608,291.202,203.708,411.817c0,0,13.923,75.894,0,99.759l-11.865,5.274l55.376-1.648c0,0,4.919-102.085,1.078-107.787
				s-11.525-5.328-11.525-5.328s-23.745-188.117-92.51-228.265l-66.642-229.535L2987.05,2357.373z"/>
			
				<linearGradient id="SVGID_00000095326054568673850870000002681172761493780899_" gradientUnits="userSpaceOnUse" x1="3049.6643" y1="2029.396" x2="2925.9744" y2="2833.3762" gradientTransform="matrix(1 0 0 1 280.6909 0)">
				<stop  offset="0" style="stop-color:#4F52FF"/>
				<stop  offset="1" style="stop-color:#4042E2"/>
			</linearGradient>
			<path style="fill:url(#SVGID_00000095326054568673850870000002681172761493780899_);" d="M3155.243,2888.519
				c-0.082,1.335,43.241,0.725,66.774,0.295c8.69-0.159,16.098-6.266,17.95-14.758l17.772-93.371
				c1.689-8.873-3.946-17.492-12.751-19.505l-9.92-2.267c0,0-14.152,19.413-9.697,37.69s8.419,65.621-2.838,71.138
				s-43.641,6.481-43.641,6.481S3155.983,2876.494,3155.243,2888.519z"/>
			
				<linearGradient id="SVGID_00000124120965269234919830000011914614284190996913_" gradientUnits="userSpaceOnUse" x1="2787.9497" y1="1989.1324" x2="2664.2595" y2="2793.1162" gradientTransform="matrix(1 0 0 1 280.6909 0)">
				<stop  offset="0" style="stop-color:#4F52FF"/>
				<stop  offset="1" style="stop-color:#4042E2"/>
			</linearGradient>
			<path style="fill:url(#SVGID_00000124120965269234919830000011914614284190996913_);" d="M2860.413,2890.214
				c-4.382,2.497-2.575,9.187,2.468,9.136c39.383-0.396,127.632-1.642,135.474-4.903c10.124-4.21-3.69-40.591-18.228-52.904
				l-80.272,26.199L2860.413,2890.214z"/>
			
				<linearGradient id="SVGID_00000106841646528093875050000013029484627803485094_" gradientUnits="userSpaceOnUse" x1="2554.8054" y1="2606.5117" x2="2699.4375" y2="2606.5117" gradientTransform="matrix(1 0 0 1 280.6909 0)">
				<stop  offset="0" style="stop-color:#FF928E"/>
				<stop  offset="1" style="stop-color:#FEB3B1"/>
			</linearGradient>
			<path style="fill:url(#SVGID_00000106841646528093875050000013029484627803485094_);" d="M2835.496,2338.801
				c0,0,86.341,417.686,110.765,499.163l-57.78,36.259c0,0,28.955-4.925,50.426-6.481s41.221-26.199,41.221-26.199l-6.922-11.04
				c0,0-21.652-415.411-16.381-462.582L2835.496,2338.801z"/>
			
				<linearGradient id="SVGID_00000102514861442831586450000000660846494472838818_" gradientUnits="userSpaceOnUse" x1="2592.9812" y1="1915.5116" x2="2285.7236" y2="1358.1617" gradientTransform="matrix(1 0 0 1 280.6909 0)">
				<stop  offset="0" style="stop-color:#FF928E"/>
				<stop  offset="1" style="stop-color:#FEB3B1"/>
			</linearGradient>
			<path style="fill:url(#SVGID_00000102514861442831586450000000660846494472838818_);" d="M2621.168,1364.547
				c0,0-11.909,217.276,185.907,328.305l-47.626,108.619c0,0-179.097-108.327-172.474-403.777c0.19-8.479-2.868-16.713-8.405-23.136
				l-38.064-44.158c-14.502-16.824-19.922-39.648-14.531-61.196l5.01-20.028c1.677-6.705,9.314-9.931,15.291-6.46l3.981,2.312
				c12.672,7.36,22.709,18.517,28.693,31.894l18.69,41.78c6.981,15.607,23.079,25.082,40.112,23.611l11.557-0.998L2621.168,1364.547
				z"/>
			
				<linearGradient id="SVGID_00000087411858455963696360000003344356668934181554_" gradientUnits="userSpaceOnUse" x1="2553.5186" y1="1675.3107" x2="3084.3528" y2="2726.6714" gradientTransform="matrix(1 0 0 1 280.6909 0)">
				<stop  offset="0" style="stop-color:#4F52FF"/>
				<stop  offset="1" style="stop-color:#4042E2"/>
			</linearGradient>
			<path style="fill:url(#SVGID_00000087411858455963696360000003344356668934181554_);" d="M2800.191,1676.57
				c33.094,9.178,145.213,38.672,215.208,37.467l-42.975,242.514l3.42,39.555l-140.116-0.628c0,0-39.444-91.604-70.564-137.274
				c-8.988-13.19-2.299-28.923,2.796-44.05l-6.999-4.66c-7.122-4.742-10.211-13.649-7.553-21.782l34.121-104.395
				C2789.299,1678.055,2794.84,1675.087,2800.191,1676.57z"/>
			
				<linearGradient id="SVGID_00000121987921502895464600000003830744846765377946_" gradientUnits="userSpaceOnUse" x1="3522.0898" y1="1552.0813" x2="3219.5242" y2="1874.8179">
				<stop  offset="0" style="stop-color:#09005D"/>
				<stop  offset="1" style="stop-color:#1A0F91"/>
			</linearGradient>
			<path style="fill:url(#SVGID_00000121987921502895464600000003830744846765377946_);" d="M2824.5,1974.779l2.756,23.963
				c0,0-39.596,118.583,19.799,395.548c0,0,128.637,36.442,234.362-50.76c0,0-29.824-261.413-37.97-273.589
				c-40.575-60.651-67.604-73.836-67.604-73.836l-1.219-26.18C2974.624,1969.926,2861.544,1990.37,2824.5,1974.779z"/>
			
				<linearGradient id="SVGID_00000077294454623790698010000006531199154286964897_" gradientUnits="userSpaceOnUse" x1="2598.6511" y1="1660.3983" x2="2687.1582" y2="1660.3983" gradientTransform="matrix(1 0 0 1 280.6909 0)">
				<stop  offset="0" style="stop-color:#FF928E"/>
				<stop  offset="1" style="stop-color:#FEB3B1"/>
			</linearGradient>
			<path style="fill:url(#SVGID_00000077294454623790698010000006531199154286964897_);" d="M2879.348,1696.116
				c-0.492-0.649,29.252-89.801,29.252-89.801l42.605,3.865l16.644,101.138C2967.849,1711.318,2901.078,1724.796,2879.348,1696.116z
				"/>
			
				<linearGradient id="SVGID_00000070086112680147489820000010610757785765421446_" gradientUnits="userSpaceOnUse" x1="3710.8293" y1="1261.4836" x2="3364.5586" y2="1389.2339">
				<stop  offset="0" style="stop-color:#FF928E"/>
				<stop  offset="1" style="stop-color:#FEB3B1"/>
			</linearGradient>
			<path style="fill:url(#SVGID_00000070086112680147489820000010610757785765421446_);" d="M2941.005,1465.722
				c-2.841,1.769-91.042,38.22-72.092,129.788c1.12,5.411,4.731,9.997,9.777,12.248c12.943,5.773,40.807,15.658,74.135,12.271
				c46.205-4.696,76.482-85.325,75.194-108.787C3026.733,1487.779,2969.162,1448.189,2941.005,1465.722z"/>
			
				<linearGradient id="SVGID_00000069378856149708693260000003353507577306424250_" gradientUnits="userSpaceOnUse" x1="2845.2029" y1="1507.1893" x2="2618.4395" y2="1960.7153" gradientTransform="matrix(1 0 0 1 280.6909 0)">
				<stop  offset="0" style="stop-color:#09005D"/>
				<stop  offset="1" style="stop-color:#1A0F91"/>
			</linearGradient>
			<path style="fill:url(#SVGID_00000069378856149708693260000003353507577306424250_);" d="M2967.849,1430.123
				c-2.319,0.304-50.97,17.249-26.844,52.503c24.126,35.254,33.177,56.007,21.766,71.488c-10.396,14.104-33.427,6.065-31.417,35.408
				c0.402,5.874-2.138,11.576-7.013,14.876c-21.703,14.691-74.651,59.908-22.192,124.394c4.264,5.241,5.143,12.477,1.853,18.378
				c-15.365,27.559-47.639,108.292,69.206,153.076c115.461,44.253,157.148-31.221,168.795-61.388
				c2.519-6.525,8.943-10.519,15.93-10.189c12.687,0.599,30.666-1.512,29.839-18.466c-0.502-10.298-6.927-19.527-14.521-26.926
				c-7.516-7.323-6.031-20.146,3.093-25.33c6.892-3.916,12.991-10.029,15.565-19.568c6.997-25.929-6.972-103.456-81.284-116.595
				c-6.199-1.096-12.69-6.908-13.593-13.137c-0.013-0.092-0.028-0.185-0.043-0.278c-0.996-6.025,1.042-12.185,5.966-15.798
				c11.866-8.705,27.083-26.229,14.723-54.332c-10.962-24.925-31.986-33.334-47.603-36.013
				c-9.169-1.573-15.198-10.245-13.265-19.345C3062.077,1458.084,3057.486,1418.37,2967.849,1430.123z"/>
			<g>
				<path style="fill:#FFFFFF;" d="M2797.323,1129.42l-26.58-0.635c-7.408-0.177-13.537-6.512-13.925-13.969l-9.73-187.255
					c-0.201-3.859,1.187-7.041,3.836-9.652c2.646-2.609,6.316-3.449,10.147-3.182l45.775,3.188c3.751,0.261,7.332,1.505,9.907,4.437
					c2.572,2.927,3.917,6.44,3.722,10.213l-9.467,183.845C2810.629,1123.761,2804.624,1129.594,2797.323,1129.42z"/>
				<path style="fill:#FFFFFF;" d="M2756.304,1175.161c6.636-6.338,15.975-9.405,27.982-9.213
					c12.378,0.198,21.76,3.461,28.184,9.777c6.407,6.298,9.603,15.502,9.603,27.624c0,11.688-3.267,20.731-9.817,27.143
					c-6.567,6.431-15.88,9.653-27.97,9.653c-11.863,0-21.164-3.324-27.873-9.989c-6.727-6.683-10.098-15.825-10.098-27.412
					C2746.315,1190.716,2749.65,1181.517,2756.304,1175.161z"/>
			</g>
		</g>
		<g>
			<g>
				
					<linearGradient id="SVGID_00000163756599171759761010000007543438755763483044_" gradientUnits="userSpaceOnUse" x1="-1919.4535" y1="1629.8123" x2="-2773.2332" y2="3779.688" gradientTransform="matrix(-1 0 0 1 -1147.9666 0)">
					<stop  offset="0" style="stop-color:#FF928E"/>
					<stop  offset="1" style="stop-color:#FEB3B1"/>
				</linearGradient>
				<path style="fill:url(#SVGID_00000163756599171759761010000007543438755763483044_);" d="M943.211,1758.317
					c0,0-489.993-60.111-272.041-390.477l16.285,23.058c0,0-66.655,232.625,197.467,247.198
					C884.922,1638.096,945.373,1722.232,943.211,1758.317z"/>
				
					<linearGradient id="SVGID_00000098217962706179916370000007983982260069315508_" gradientUnits="userSpaceOnUse" x1="3775.8518" y1="1266.55" x2="3718.5242" y2="1454.9124" gradientTransform="matrix(1 0 0 1 -3044.9958 0)">
					<stop  offset="0" style="stop-color:#FF928E"/>
					<stop  offset="1" style="stop-color:#FEB3B1"/>
				</linearGradient>
				<path style="fill:url(#SVGID_00000098217962706179916370000007983982260069315508_);" d="M669.533,1369.585
					c0,0-5.459-65.518,27.3-70.978c32.759-5.459,43.679,27.299,49.139,43.679c5.46,16.38-49.139,49.137-60.058,49.137
					C674.993,1391.424,669.533,1369.585,669.533,1369.585z"/>
				
					<linearGradient id="SVGID_00000102543695634894373870000008836477727364577967_" gradientUnits="userSpaceOnUse" x1="1092.4922" y1="1997.4103" x2="941.2341" y2="1486.9155">
					<stop  offset="0" style="stop-color:#09005D"/>
					<stop  offset="1" style="stop-color:#1A0F91"/>
				</linearGradient>
				<path style="fill:url(#SVGID_00000102543695634894373870000008836477727364577967_);" d="M938.883,1348.495
					c0,0,23.81,10.504,50.422,58.125c13.142,23.518,30.879,75.344,34.655,122.952c1.95,24.58,13.599,44.267,29.277,48.018
					c39.049,9.347,99.228,41.01,108.857,146.878c7.35,80.809-19.031,111.449-46.718,122.055
					c-20.335,7.789-33.849,38.675-29.736,70.732c3.945,30.749-1.938,66.296-36.052,94.403
					c-76.446,62.989-152.79-149.225-152.79-149.225l-15.646-370.538L938.883,1348.495z"/>
				
					<linearGradient id="SVGID_00000098938192514591760810000003495886441427970436_" gradientUnits="userSpaceOnUse" x1="1291.3788" y1="2541.8291" x2="1294.7402" y2="3113.3433">
					<stop  offset="0" style="stop-color:#4F52FF"/>
					<stop  offset="1" style="stop-color:#4042E2"/>
				</linearGradient>
				<path style="fill:url(#SVGID_00000098938192514591760810000003495886441427970436_);" d="M1250.14,2886.121l4.947,40.668
					c0.939,7.715,7.013,13.815,14.735,14.698c13.037,1.489,33.958,3.016,54.427,0.852c8.984-0.95,14.818-10.048,12.081-18.658
					c-4.99-15.7-14.119-39.268-27.281-53.135h-45.113C1255.594,2870.545,1249.132,2877.841,1250.14,2886.121z"/>
				
					<linearGradient id="SVGID_00000062910259184378758440000017219416293548527757_" gradientUnits="userSpaceOnUse" x1="379.2058" y1="3249.9521" x2="504.3659" y2="1787.1425" gradientTransform="matrix(1 0 0 1 503.3257 0)">
					<stop  offset="0" style="stop-color:#FF928E"/>
					<stop  offset="1" style="stop-color:#FEB3B1"/>
				</linearGradient>
				<path style="fill:url(#SVGID_00000062910259184378758440000017219416293548527757_);" d="M896.797,2409.723l-7.615,44.793
					c0,0,25.5,258.285,30.035,361.598c0.711,16.198-3.48,32.205-11.981,46.011l-44.338,72.001l112.685-66.494l2.244-13.751
					l-18.447-25.364l24.162-289.343c1.419-16.999-2.088-34.044-10.102-49.101l-23.308-43.789L896.797,2409.723z"/>
				
					<linearGradient id="SVGID_00000047041359719872141480000000981816227132984474_" gradientUnits="userSpaceOnUse" x1="914.481" y1="2646.2126" x2="917.843" y2="3113.5103">
					<stop  offset="0" style="stop-color:#4F52FF"/>
					<stop  offset="1" style="stop-color:#4042E2"/>
				</linearGradient>
				<path style="fill:url(#SVGID_00000047041359719872141480000000981816227132984474_);" d="M855.477,2944.557h35.96
					c6.731,0,13.079-3.09,17.184-8.424c11.21-14.567,34.438-42.986,45.544-43.728c14.951-0.999,13.038,52.152,13.038,52.152h8.38
					l10.616-66.046c2.672-16.618-5.594-33.081-20.516-40.867l0,0c0,0-3.417,25.275-21.949,36.455
					c-18.53,11.18-75.41,51.217-75.41,51.217s-6.966-0.992-14.615,0.389C842.362,2927.756,843.948,2944.557,855.477,2944.557z"/>
				
					<linearGradient id="SVGID_00000166646497511513242040000017595924431235758254_" gradientUnits="userSpaceOnUse" x1="630.9731" y1="3271.7188" x2="756.1661" y2="1808.5249" gradientTransform="matrix(1 0 0 1 503.3257 0)">
					<stop  offset="0" style="stop-color:#FF928E"/>
					<stop  offset="1" style="stop-color:#FEB3B1"/>
				</linearGradient>
				<path style="fill:url(#SVGID_00000166646497511513242040000017595924431235758254_);" d="M1051.141,2430.998
					c0,0,149.381,283.362,173.127,348.058c23.746,64.697,32.064,118.668,32.383,123.779c0.498,7.986,10.431,15.646,37.811,15.646
					c14.13,0,21.051-5.664,24.439-11.147c2.892-4.677,3.041-10.53,0.604-15.46c-8.642-17.487-36.064-73.374-46.219-98.72
					c-12.125-30.264-38.208-167.414-52.513-215.099c-14.304-47.686-30.474-99.412-92.766-147.057
					C1128.006,2430.998,1085.244,2389.115,1051.141,2430.998z"/>
				
					<linearGradient id="SVGID_00000044139433233745854650000007868942940113490599_" gradientUnits="userSpaceOnUse" x1="1518.5421" y1="789.5142" x2="1256.3175" y2="1206.3844">
					<stop  offset="0" style="stop-color:#E1473D"/>
					<stop  offset="1" style="stop-color:#E9605A"/>
				</linearGradient>
				<path style="fill:url(#SVGID_00000044139433233745854650000007868942940113490599_);" d="M956.773,1966.693
					c-38.534-163.283,62.229-243.039,62.229-243.039c-4.334-52.009-115.299-83.983-159.264-94.643
					c-11.277-2.734-23.187,0.006-32.106,7.428c-28.761,23.934-89.74,81.071-79.978,128.162
					c7.446,35.917,75.273,215.13,75.273,215.13S885.643,2009.415,956.773,1966.693z"/>
				
					<linearGradient id="SVGID_00000106846828418301316870000006727909894406912938_" gradientUnits="userSpaceOnUse" x1="944.342" y1="2719.7371" x2="1019.9814" y2="1484.2828">
					<stop  offset="0" style="stop-color:#4F52FF"/>
					<stop  offset="1" style="stop-color:#4042E2"/>
				</linearGradient>
				<path style="fill:url(#SVGID_00000106846828418301316870000006727909894406912938_);" d="M1042.208,2047.531
					c-15.682-47.243-85.435-80.837-85.435-80.837c-71.13,42.721-133.847,13.038-133.847,13.038s-14.066,53.762-4.359,103.725
					c9.708,49.962,70.615,371.059,70.615,371.059c95.969,19.445,243.566-19.563,243.566-19.563
					C1071.62,2326.423,1057.889,2094.773,1042.208,2047.531z"/>
				
					<linearGradient id="SVGID_00000157295306777688555100000014777992473321180091_" gradientUnits="userSpaceOnUse" x1="365.4796" y1="1808.0609" x2="388.9906" y2="1636.0607" gradientTransform="matrix(1 0 0 1 503.3257 0)">
					<stop  offset="0" style="stop-color:#FF928E"/>
					<stop  offset="1" style="stop-color:#FEB3B1"/>
				</linearGradient>
				<path style="fill:url(#SVGID_00000157295306777688555100000014777992473321180091_);" d="M912.044,1517.129l31.329,140.723
					c3,12.395-8.3,10.366-20.832,8.003c-20.523-3.869-46.974-11.838-55.816-27.808c-0.899-1.624-1.348-3.461-1.603-5.302
					l-13.46-97.58c-1.069-7.741,3.118-15.255,10.262-18.423l25.973-11.517C897.898,1500.791,909.472,1506.497,912.044,1517.129z"/>
				<g>
					
						<linearGradient id="SVGID_00000141451526569898685900000000678932207089514154_" gradientUnits="userSpaceOnUse" x1="306.1367" y1="1586.3008" x2="511.2711" y2="1221.2306" gradientTransform="matrix(1 0 0 1 503.3257 0)">
						<stop  offset="0" style="stop-color:#FF928E"/>
						<stop  offset="1" style="stop-color:#FEB3B1"/>
					</linearGradient>
					<path style="fill:url(#SVGID_00000141451526569898685900000000678932207089514154_);" d="M875.286,1383.142
						c0,0-37.103,15.667-62.332,69.284c-25.229,53.615-6.388,78.372,17.276,81.771c23.665,3.398,59.055,2.88,96.489-31.755
						C964.154,1467.806,923.519,1364.571,875.286,1383.142z"/>
					
						<linearGradient id="SVGID_00000111887990542387074960000002190585372515986322_" gradientUnits="userSpaceOnUse" x1="1083.2529" y1="2000.1481" x2="931.9949" y2="1489.6536">
						<stop  offset="0" style="stop-color:#09005D"/>
						<stop  offset="1" style="stop-color:#1A0F91"/>
					</linearGradient>
					<path style="fill:url(#SVGID_00000111887990542387074960000002190585372515986322_);" d="M901.557,1473.817
						c0,0,27.994-78.443-41.554-79.37l-16.364,11.438c0,0-25.518-43.492,16.364-64.253c41.883-20.76,90.901-3.612,108.724,52.814
						s20.866,94.198-8.786,121.194c-29.652,26.997-41.872-3.613-41.872-3.613s16.147-25.251,9.574-38.76
						c-6.573-13.509-21.736,2.795-21.736,2.795L901.557,1473.817z"/>
					
						<linearGradient id="SVGID_00000065788987100504095370000000411145110482792083_" gradientUnits="userSpaceOnUse" x1="342.7995" y1="1613.6377" x2="547.9332" y2="1248.5686" gradientTransform="matrix(1 0 0 1 503.3257 0)">
						<stop  offset="0" style="stop-color:#FF928E"/>
						<stop  offset="1" style="stop-color:#FEB3B1"/>
					</linearGradient>
					<path style="fill:url(#SVGID_00000065788987100504095370000000411145110482792083_);" d="M902.354,1485.355
						c0,0,14.153-40.408,33.035-24.315c18.881,16.092-15.346,37.324-28.745,44.202L902.354,1485.355z"/>
				</g>
			</g>
			<g>
				<path style="fill:#FFFFFF;" d="M1341.8,1272.44c-1.684,5.614-8.389,9.027-14.804,7.125l-0.033-0.01
					c-6.415-1.902-10.369-7.652-8.685-13.266l48.196-160.685c1.684-5.614,8.394-9.043,14.809-7.141l0.033,0.01
					c6.415,1.902,10.363,7.668,8.679,13.282L1341.8,1272.44z"/>
				<path style="fill:#FFFFFF;" d="M1425.578,1301.539c-4.2,4.421-3.524,11.301,1.9,14.921l0.028,0.019
					c5.424,3.62,12.808,3.453,17.008-0.969l120.464-126.848c4.2-4.421,3.859-11.694-1.565-15.314l-0.028-0.019
					c-5.424-3.62-13.143-3.06-17.343,1.362L1425.578,1301.539z"/>
				<path style="fill:#FFFFFF;" d="M1206.615,1262.817c1.466,5.768,7.955,9.588,14.494,8.531l0.034-0.005
					c6.539-1.057,10.651-6.59,9.185-12.358l-41.952-165.06c-1.466-5.769-7.955-9.588-14.494-8.531l-0.034,0.005
					c-6.539,1.057-10.651,6.59-9.185,12.358L1206.615,1262.817z"/>
				<path style="fill:#FFFFFF;" d="M1095.373,1299.813c4.474,4.517,12.145,5.146,17.134,1.405l0.026-0.019
					c4.989-3.741,5.406-10.435,0.932-14.951L985.44,1157.01c-4.474-4.517-12.145-5.146-17.134-1.405l-0.026,0.019
					c-4.989,3.741-5.406,10.435-0.931,14.951L1095.373,1299.813z"/>
			</g>
			<g>
				
					<linearGradient id="SVGID_00000114787433010968017740000017277215680068816548_" gradientUnits="userSpaceOnUse" x1="2508.6455" y1="2895.9946" x2="2620.812" y2="2895.9946">
					<stop  offset="0" style="stop-color:#4F52FF"/>
					<stop  offset="1" style="stop-color:#4042E2"/>
				</linearGradient>
				<path style="fill:url(#SVGID_00000114787433010968017740000017277215680068816548_);" d="M2620.81,2933.58
					c0.013-0.844-0.044-1.7-0.26-2.561c-12.772-50.636-64.996-76.591-64.996-76.591l-25.119,1.969
					c-14.442,44.63-23.755,66.418-21.436,78.61c0.064,0.341,0.168,0.667,0.259,0.997
					C2529.979,2937.855,2572.629,2939.063,2620.81,2933.58z"/>
				<path style="fill:#7D97F4;" d="M2509.258,2936.003c1.119,4.072,4.125,7.242,7.971,8.05c29.477,6.199,76.327,1.211,95.997-1.362
					c4.339-0.566,7.512-4.581,7.584-9.112C2572.629,2939.063,2529.979,2937.855,2509.258,2936.003z"/>
				
					<linearGradient id="SVGID_00000155824842382671581080000008391109077542831012_" gradientUnits="userSpaceOnUse" x1="-1881.5823" y1="2764.3777" x2="-1903.975" y2="2959.8054" gradientTransform="matrix(-1 0 0 1 663.8687 0)">
					<stop  offset="0" style="stop-color:#A22B25"/>
					<stop  offset="1" style="stop-color:#C0423C"/>
				</linearGradient>
				<path style="fill:url(#SVGID_00000155824842382671581080000008391109077542831012_);" d="M2576.239,2815.337l-10.997,52.946
					c-0.807,3.879-3.787,6.784-7.399,7.123c-4.419,0.415-10.712,0.658-17.039-0.271c-5.674-0.833-9.625-6.599-8.62-12.787
					l7.645-47.01H2576.239z"/>
				<path style="fill:#7D97F4;" d="M2295.82,2935.564c26.828-0.75,40.704-3.911,47.879-6.843c0.016,2.667,0,5.382-0.086,8.195
					c-0.092,3.004-2.317,5.403-5.054,5.386l-147.304-0.951c-4.701-0.03-7.449-5.482-5.411-9.793
					C2205.157,2933.155,2254.348,2936.724,2295.82,2935.564z"/>
				
					<linearGradient id="SVGID_00000106851834550481394110000016213223446457011094_" gradientUnits="userSpaceOnUse" x1="2185.8438" y1="2897.5884" x2="2343.6992" y2="2897.5884">
					<stop  offset="0" style="stop-color:#4F52FF"/>
					<stop  offset="1" style="stop-color:#4042E2"/>
				</linearGradient>
				<path style="fill:url(#SVGID_00000106851834550481394110000016213223446457011094_);" d="M2185.844,2931.559
					c0.178-0.375,0.33-0.758,0.583-1.111c13.008-18.177,46.142-54.373,111.614-70.072l31.409-0.991c0,0,13.985,24.309,14.25,69.336
					c-7.175,2.932-21.051,6.092-47.879,6.843C2254.348,2936.724,2205.157,2933.155,2185.844,2931.559z"/>
				
					<linearGradient id="SVGID_00000071550376053548331680000006149711055638572701_" gradientUnits="userSpaceOnUse" x1="-1645.6895" y1="2789.3787" x2="-1666.6368" y2="2972.1938" gradientTransform="matrix(-1 0 0 1 663.8687 0)">
					<stop  offset="0" style="stop-color:#A22B25"/>
					<stop  offset="1" style="stop-color:#C0423C"/>
				</linearGradient>
				<path style="fill:url(#SVGID_00000071550376053548331680000006149711055638572701_);" d="M2335.274,2811.785
					c-0.349,2.341-4.655,37.924-6.322,51.721c-0.396,3.278-2.771,5.814-5.764,6.173c-5.348,0.638-14.003,1.219-21.574-0.333
					c-4.085-0.837-7.041-4.761-7.041-9.324v-55.855L2335.274,2811.785z"/>
				
					<linearGradient id="SVGID_00000020382843415715454400000011095723765641904279_" gradientUnits="userSpaceOnUse" x1="-2331.9058" y1="1645.7931" x2="-3267.2756" y2="3127.8064" gradientTransform="matrix(-1 0 0 1 -435.5983 0)">
					<stop  offset="0" style="stop-color:#4F52FF"/>
					<stop  offset="1" style="stop-color:#4042E2"/>
				</linearGradient>
				<path style="fill:url(#SVGID_00000020382843415715454400000011095723765641904279_);" d="M2555.25,2120.079
					c0,0,50.26,446.752,22.338,725.972c0,0-33.506,0-50.26-5.585c0,0-52.227-436.808-69.123-561.803
					c-0.636-4.712-7.364-4.926-8.288-0.261c-20.845,105.158-102.723,517.536-112.459,556.48c0,0-27.922,11.169-50.259,0
					c0,0,44.674-597.531,78.18-703.634L2555.25,2120.079z"/>
				
					<linearGradient id="SVGID_00000007404657648884966210000017161285360198442427_" gradientUnits="userSpaceOnUse" x1="2418.5635" y1="1523.9308" x2="2686.3301" y2="2523.9543">
					<stop  offset="0" style="stop-color:#FE7062"/>
					<stop  offset="1" style="stop-color:#FF928E"/>
				</linearGradient>
				<path style="fill:url(#SVGID_00000007404657648884966210000017161285360198442427_);" d="M2655.77,1600.731
					c0,0-212.208-33.507-379.739,11.168l11.169,173.116c0,0,44.674,240.129,78.18,346.233c0,0,128.441,22.337,189.869-11.169
					c0,0,50.26-301.557,78.182-346.232C2633.433,1773.847,2661.355,1656.574,2655.77,1600.731z"/>
				
					<linearGradient id="SVGID_00000004522362092886670470000018032130616487522208_" gradientUnits="userSpaceOnUse" x1="2163.7126" y1="1592.1697" x2="2431.4785" y2="2592.1904">
					<stop  offset="0" style="stop-color:#FE7062"/>
					<stop  offset="1" style="stop-color:#FF928E"/>
				</linearGradient>
				<path style="fill:url(#SVGID_00000004522362092886670470000018032130616487522208_);" d="M2338.754,1814.539
					c0,0-484.755-131.95-244.055-471.289l16.285,23.057c0,0-59.15,220.742,181.082,242.582
					C2292.066,1608.889,2340.916,1778.453,2338.754,1814.539z"/>
				
					<linearGradient id="SVGID_00000036213056089297554100000009668551826277103239_" gradientUnits="userSpaceOnUse" x1="5199.3809" y1="1241.9594" x2="5142.0532" y2="1430.3217" gradientTransform="matrix(1 0 0 1 -3044.9958 0)">
					<stop  offset="0" style="stop-color:#A22B25"/>
					<stop  offset="1" style="stop-color:#C0423C"/>
				</linearGradient>
				<path style="fill:url(#SVGID_00000036213056089297554100000009668551826277103239_);" d="M2093.062,1344.994
					c0,0-5.459-65.518,27.3-70.978c32.76-5.459,43.679,27.299,49.139,43.679c5.46,16.38-49.139,49.137-60.059,49.137
					C2098.522,1366.833,2093.062,1344.994,2093.062,1344.994z"/>
				
					<linearGradient id="SVGID_00000111906539269508712480000008173075051590746263_" gradientUnits="userSpaceOnUse" x1="-3677.459" y1="1525.4789" x2="-3577.0417" y2="1525.4789" gradientTransform="matrix(-1 0 0 1 -1147.9666 0)">
					<stop  offset="0" style="stop-color:#A22B25"/>
					<stop  offset="1" style="stop-color:#C0423C"/>
				</linearGradient>
				<path style="fill:url(#SVGID_00000111906539269508712480000008173075051590746263_);" d="M2508.353,1448.138l21.14,142.96
					c0,0-59.061,27.132-100.417-1.164l8.904-100.893L2508.353,1448.138z"/>
				<g>
					
						<linearGradient id="SVGID_00000028326852897732970910000000941308963741731991_" gradientUnits="userSpaceOnUse" x1="-3708.2095" y1="-3871.8987" x2="-3857.0051" y2="-3675.0544" gradientTransform="matrix(-0.6854 -0.7281 -0.7281 0.6854 -2894.748 1318.7853)">
						<stop  offset="0" style="stop-color:#A22B25"/>
						<stop  offset="1" style="stop-color:#C0423C"/>
					</linearGradient>
					<path style="fill:url(#SVGID_00000028326852897732970910000000941308963741731991_);" d="M2446.602,1343.083
						c-1.429,1.345-60.281,116.918-60.281,116.918l66.706,32.201l72.053-101.253
						C2525.079,1390.95,2470.514,1320.573,2446.602,1343.083z"/>
					
						<linearGradient id="SVGID_00000001621351296824985100000014274549273196209049_" gradientUnits="userSpaceOnUse" x1="-3821.8474" y1="-3824.627" x2="-3644.1094" y2="-3824.627" gradientTransform="matrix(-0.6854 -0.7281 -0.7281 0.6854 -2894.748 1318.7853)">
						<stop  offset="0" style="stop-color:#09005D"/>
						<stop  offset="1" style="stop-color:#1A0F91"/>
					</linearGradient>
					<path style="fill:url(#SVGID_00000001621351296824985100000014274549273196209049_);" d="M2495.566,1393.753
						c1.19,3.079,0.897,6.515-0.801,9.345l-33.269,55.459c-0.506,0.84-1.106,1.602-1.825,2.27
						c-3.96,3.687-17.51,14.408-27.985-0.189c-8.929-12.441-17.305-23.753-26.282-28.418c-5.241-2.725-11.693-0.549-14.354,4.725
						c-5.48,10.864-16.098,33.009-22.768,54.009c-1.672,5.264,1.045,10.915,6.163,12.988c13.507,5.472,40.201,15.369,63.891,18.638
						c3.891,0.538,7.744-1.105,10.06-4.278c10.191-13.961,38.916-52.979,48.72-62.745c9.109-9.075,25.919-5.652,33.493-3.476
						c2.875,0.827,5.937,0.429,8.5-1.115c7.686-4.629,21.097-16.155,8.828-35.672c-3.051-4.852-1.497-11.316,3.294-14.466
						c8.579-5.644,17.891-16.238,9.02-33.396c-8.98-17.368-25.016-18.927-35.938-17.592c-4.832,0.591-9.74-1.944-11.593-6.445
						c-0.825-2.002-2.455-3.709-5.49-4.325c-5.724-1.161-9.482-6.396-8.358-12.128c1.926-9.829,0.475-22.597-15.217-31.225
						c-28.781-15.824-53.992,9.96-60.402,31.725c-6.412,21.767,25.768,37.148,46.011,39.716
						C2484.134,1369.044,2492.287,1385.272,2495.566,1393.753z"/>
					
						<linearGradient id="SVGID_00000142863834386775710400000005911088562506983088_" gradientUnits="userSpaceOnUse" x1="-3926.1367" y1="-3716.0139" x2="-3806.7908" y2="-3838.4595" gradientTransform="matrix(-0.6854 -0.7281 -0.7281 0.6854 -2894.748 1318.7853)">
						<stop  offset="0" style="stop-color:#A22B25"/>
						<stop  offset="1" style="stop-color:#C0423C"/>
					</linearGradient>
					<path style="fill:url(#SVGID_00000142863834386775710400000005911088562506983088_);" d="M2484.622,1475.923
						c0,0,12.799-37.447,29.181-36.072c16.383,1.375,29.276,17.694,8.973,36.04
						C2497.521,1498.712,2484.622,1475.923,2484.622,1475.923z"/>
				</g>
			</g>
			<g>
				
					<linearGradient id="SVGID_00000114073696674830276360000007893555376183822771_" gradientUnits="userSpaceOnUse" x1="1728.1443" y1="1540.0792" x2="1678.8369" y2="2089.1809">
					<stop  offset="0" style="stop-color:#4F52FF"/>
					<stop  offset="1" style="stop-color:#4042E2"/>
				</linearGradient>
				<path style="fill:url(#SVGID_00000114073696674830276360000007893555376183822771_);" d="M1811.978,1759.517
					c0,0-149.056,181.536-203.891,137.792c-54.835-43.744,93.208-282.194,93.208-282.194L1811.978,1759.517z"/>
				<path style="fill:#7D97F4;" d="M1805.877,2938.232c-0.014-0.89,0.046-1.791,0.274-2.699
					c13.461-53.37,80.274-86.611,80.274-86.611l26.476,2.075c15.222,47.039,13.266,75.888,10.822,88.738
					c-0.068,0.36-0.177,0.702-0.273,1.051C1901.611,2942.738,1856.658,2944.012,1805.877,2938.232z"/>
				
					<linearGradient id="SVGID_00000142898270292223639960000014154302348444734337_" gradientUnits="userSpaceOnUse" x1="-3811.7458" y1="2759.6067" x2="-3834.5764" y2="2958.856" gradientTransform="matrix(-1 0 0 1 -1919.5876 0)">
					<stop  offset="0" style="stop-color:#FF928E"/>
					<stop  offset="1" style="stop-color:#FEB3B1"/>
				</linearGradient>
				<path style="fill:url(#SVGID_00000142898270292223639960000014154302348444734337_);" d="M1923.547,2811.563l-11.213,53.98
					c-0.822,3.956-3.861,6.918-7.542,7.263c-4.506,0.423-10.921,0.671-17.372-0.277c-5.785-0.85-9.814-6.729-8.787-13.037
					l7.794-47.93H1923.547z"/>
				<path style="fill:#7D97F4;" d="M1571.35,2935.879c0.194-0.409,0.36-0.825,0.636-1.211
					c14.179-19.811,50.291-59.261,121.649-76.372l34.233-1.08c0,0,15.243,26.494,15.531,75.57
					c-7.819,3.196-22.943,6.639-52.183,7.458C1646.014,2941.509,1592.401,2937.618,1571.35,2935.879z"/>
				
					<linearGradient id="SVGID_00000111875609147087953060000003910687917923172271_" gradientUnits="userSpaceOnUse" x1="-3625.7751" y1="2780.9158" x2="-3648.6055" y2="2980.1646" gradientTransform="matrix(-1 0 0 1 -1919.5876 0)">
					<stop  offset="0" style="stop-color:#FF928E"/>
					<stop  offset="1" style="stop-color:#FEB3B1"/>
				</linearGradient>
				<path style="fill:url(#SVGID_00000111875609147087953060000003910687917923172271_);" d="M1734.215,2805.337
					c-0.38,2.551-5.073,41.333-6.889,56.37c-0.431,3.573-3.02,6.338-6.283,6.728c-5.829,0.696-15.261,1.33-23.514-0.362
					c-4.452-0.913-7.674-5.189-7.674-10.162v-60.876L1734.215,2805.337z"/>
				
					<linearGradient id="SVGID_00000168805390009387710270000000716897665098579359_" gradientUnits="userSpaceOnUse" x1="-3354.5103" y1="1869.7899" x2="-4084.7109" y2="3002.8616" gradientTransform="matrix(-1 0 0 1 -1919.5876 0)">
					<stop  offset="0" style="stop-color:#4F52FF"/>
					<stop  offset="1" style="stop-color:#4042E2"/>
				</linearGradient>
				<path style="fill:url(#SVGID_00000168805390009387710270000000716897665098579359_);" d="M1761.679,2097.589
					c0,0-82.566,313.781-81.074,708.645c0.027,7.199,5.082,13.412,12.127,14.896c10.381,2.186,25.641,4.783,38.274,4.428
					c6.744-0.189,12.382-5.19,13.516-11.841c11.577-67.892,78.015-450.363,115.87-512.455c0,0,24.905,340.645,16.944,517.374
					c-0.198,4.394,3.019,8.206,7.389,8.711c6.629,0.766,17.233,1.348,30.728-0.085c5.123-0.544,9.256-4.417,9.988-9.516
					c8.246-57.459,55.71-399.476,53.692-645.853c-0.114-13.893-36.743-74.304-36.743-74.304H1761.679z"/>
				
					<linearGradient id="SVGID_00000027563260933897212180000005779387394323724976_" gradientUnits="userSpaceOnUse" x1="1906.8395" y1="1651.9592" x2="1953.905" y2="2620.1704">
					<stop  offset="0" style="stop-color:#4F52FF"/>
					<stop  offset="1" style="stop-color:#4042E2"/>
				</linearGradient>
				<path style="fill:url(#SVGID_00000027563260933897212180000005779387394323724976_);" d="M1704.81,1616.654
					c113.629-16.433,238.447-1.355,299.026,6.277c19.615,2.471,37.555,12.142,50.481,27.1
					c51.261,59.322,163.745,221.734,31.347,385.39c-16.943-9.406-41.019-24.487-57.371-41.94
					c14.648-41.292,15.848-94.058-14.85-158.764c-1.049,5.128-2.346,10.206-3.923,15.203
					c-42.31,134.042-44.568,245.586-44.473,271.293c0.014,3.492-2.083,6.635-5.324,7.933
					c-55.685,22.315-162.876,9.034-198.858,3.672c-6.597-0.983-11.036-7.125-10.124-13.734
					c12.657-91.701-30.318-225.8-64.493-313.821C1672.743,1770.479,1697.738,1626.405,1704.81,1616.654z"/>
				
					<linearGradient id="SVGID_00000011737912175539203180000000187903685848451209_" gradientUnits="userSpaceOnUse" x1="1830.7228" y1="1699.631" x2="1802.147" y2="1830.7432">
					<stop  offset="0" style="stop-color:#FF928E"/>
					<stop  offset="1" style="stop-color:#FEB3B1"/>
				</linearGradient>
				<path style="fill:url(#SVGID_00000011737912175539203180000000187903685848451209_);" d="M1885.92,1483.364l15.688,129.682
					c0.712,5.884-2.907,11.446-8.596,13.109c-17.028,4.979-53.48,12.519-86.79-1.19c-6.321-2.602-9.813-9.44-8.362-16.12
					l19.834-91.276L1885.92,1483.364z"/>
				<path style="fill:#7D97F4;" d="M2019.058,1824.692c22.443-61.422,14.302-135.589,14.216-136.331l-6.184,0.707
					c0.082,0.728,8.051,73.473-13.882,133.487L2019.058,1824.692z"/>
				
					<linearGradient id="SVGID_00000042735767817812075870000014793333643275616697_" gradientUnits="userSpaceOnUse" x1="-3764.0242" y1="2174.0327" x2="-3825.2522" y2="2282.9978" gradientTransform="matrix(-1 0 0 1 -1919.5876 0)">
					<stop  offset="0" style="stop-color:#09005D"/>
					<stop  offset="1" style="stop-color:#1A0F91"/>
				</linearGradient>
				<path style="fill:url(#SVGID_00000042735767817812075870000014793333643275616697_);" d="M1863.426,2293.263
					c1.383,0,2.648-0.929,3.01-2.332c6.847-26.408,58.118-55.429,58.635-55.719c1.499-0.841,2.034-2.738,1.191-4.238
					c-0.842-1.499-2.73-2.035-4.238-1.192c-2.204,1.236-54.105,30.616-61.615,59.587c-0.431,1.665,0.569,3.364,2.232,3.794
					C1862.903,2293.231,1863.167,2293.263,1863.426,2293.263z"/>
				
					<linearGradient id="SVGID_00000016072955042297584660000002762863014711789199_" gradientUnits="userSpaceOnUse" x1="-4005.2512" y1="2076.4707" x2="-3810.2952" y2="2076.4707" gradientTransform="matrix(-1 0 0 1 -1919.5876 0)">
					<stop  offset="0" style="stop-color:#FF928E"/>
					<stop  offset="1" style="stop-color:#FEB3B1"/>
				</linearGradient>
				<path style="fill:url(#SVGID_00000016072955042297584660000002762863014711789199_);" d="M2028.293,1993.481
					c16.352,17.453,40.428,32.535,57.37,41.94c-25.301,31.275-59.538,62.594-104.861,93.249l-5.482,12.302
					c-4.698,10.541-14.962,17.532-26.489,18.081c-63.345,3.018-80.873-10.417-22.561-51.086
					C1926.27,2107.967,2000.846,2070.855,2028.293,1993.481z"/>
				
					<linearGradient id="SVGID_00000009587952806683673650000017684630690014845353_" gradientUnits="userSpaceOnUse" x1="-1964.9679" y1="9133.1631" x2="-1841.1982" y2="9133.1631" gradientTransform="matrix(-0.5644 0.8255 0.8255 0.5644 -7019.1597 -1768.4667)">
					<stop  offset="0" style="stop-color:#FF928E"/>
					<stop  offset="1" style="stop-color:#FEB3B1"/>
				</linearGradient>
				<path style="fill:url(#SVGID_00000009587952806683673650000017684630690014845353_);" d="M1562.578,1718.595
					c0,0,79.93,83.091,98.396,113.234c18.467,30.143-2.089,85.039-44.039,72.295c-41.951-12.744-90.786-156.918-90.786-156.918
					L1562.578,1718.595z"/>
				<g>
					
						<linearGradient id="SVGID_00000057148214508066432500000004455016701897659803_" gradientUnits="userSpaceOnUse" x1="1645.9387" y1="1632.1998" x2="1541.7212" y2="1828.868">
						<stop  offset="0" style="stop-color:#09005D"/>
						<stop  offset="1" style="stop-color:#1A0F91"/>
					</linearGradient>
					<path style="fill:url(#SVGID_00000057148214508066432500000004455016701897659803_);" d="M1696.367,1600.584
						c0,0-70.24,185.246-92.432,223.783c-25.76,44.733-100.992,16.228-97.248-21.209c3.744-37.437,91.641-192.176,91.641-192.176
						L1696.367,1600.584z"/>
					
						<linearGradient id="SVGID_00000096060885794943008910000014321714070397207426_" gradientUnits="userSpaceOnUse" x1="2090.5229" y1="651.2819" x2="1707.2726" y2="1098.4073">
						<stop  offset="0" style="stop-color:#E1473D"/>
						<stop  offset="1" style="stop-color:#E9605A"/>
					</linearGradient>
					<polygon style="fill:url(#SVGID_00000096060885794943008910000014321714070397207426_);" points="1601.459,1465.641 
						1164.891,1314.276 1169.475,1723.895 1613.39,1624.847 					"/>
					
						<linearGradient id="SVGID_00000081636325105111540350000000161366002843585979_" gradientUnits="userSpaceOnUse" x1="-3056.2976" y1="1483.1108" x2="-2518.0559" y2="762.7766" gradientTransform="matrix(-1 0 0 1 -1919.5876 0)">
						<stop  offset="0" style="stop-color:#FF928E"/>
						<stop  offset="1" style="stop-color:#FEB3B1"/>
					</linearGradient>
					
						<ellipse style="fill:url(#SVGID_00000081636325105111540350000000161366002843585979_);" cx="1164.479" cy="1520.274" rx="42.891" ry="210.506"/>
					
						<linearGradient id="SVGID_00000129918358993728511070000004597455848687541180_" gradientUnits="userSpaceOnUse" x1="-2963.8411" y1="1044.8484" x2="-3210.2014" y2="2043.6779" gradientTransform="matrix(-1 0 0 1 -1919.5876 0)">
						<stop  offset="0" style="stop-color:#E1473D"/>
						<stop  offset="1" style="stop-color:#E9605A"/>
					</linearGradient>
					<path style="fill:url(#SVGID_00000129918358993728511070000004597455848687541180_);" d="M1161.224,1716.385
						c3.876-3.943,12.322-19.152,19.562-58.482c6.998-38.009,10.851-87.308,10.851-138.816c0-51.509-3.853-100.808-10.851-138.816
						c-7.24-39.331-15.685-54.54-19.562-58.483c-3.877,3.943-12.322,19.152-19.562,58.483
						c-6.997,38.008-10.851,87.308-10.851,138.816c0,51.509,3.853,100.808,10.851,138.816
						C1148.902,1697.232,1157.347,1712.442,1161.224,1716.385z"/>
					<g>
						<defs>
							<path id="SVGID_00000017489159094353766340000003617481891249609654_" d="M1161.224,1716.385
								c3.876-3.943,12.322-19.152,19.562-58.482c6.998-38.009,10.851-87.308,10.851-138.816c0-51.509-3.853-100.808-10.851-138.816
								c-7.24-39.331-15.685-54.54-19.562-58.483c-3.877,3.943-12.322,19.152-19.562,58.483
								c-6.997,38.008-62.214,87.308-62.214,138.816c0,51.509,55.216,100.808,62.214,138.816
								C1148.902,1697.232,1157.347,1712.442,1161.224,1716.385z"/>
						</defs>
						<clipPath id="SVGID_00000060031469990433122650000008098088159428679054_">
							<use xlink:href="#SVGID_00000017489159094353766340000003617481891249609654_"  style="overflow:visible;"/>
						</clipPath>
						
							<linearGradient id="SVGID_00000132068722538860187050000015882810189119623351_" gradientUnits="userSpaceOnUse" x1="-2989.0417" y1="1512.1121" x2="-3293.5283" y2="1529.5828" gradientTransform="matrix(-1 0 0 1 -1919.5876 0)">
							<stop  offset="0" style="stop-color:#09005D"/>
							<stop  offset="1" style="stop-color:#1A0F91"/>
						</linearGradient>
						
							<path style="clip-path:url(#SVGID_00000060031469990433122650000008098088159428679054_);fill:url(#SVGID_00000132068722538860187050000015882810189119623351_);" d="
							M1106.249,1517.518c0,35.767,19.268,64.762,57.403,64.762s69.05-28.995,69.05-64.762c0-35.767-30.915-64.762-69.05-64.762
							S1106.249,1481.751,1106.249,1517.518z"/>
					</g>
					
						<linearGradient id="SVGID_00000005257266893486072300000012402985829279649681_" gradientUnits="userSpaceOnUse" x1="1856.6796" y1="1309.0336" x2="1589.4127" y2="1601.5139">
						<stop  offset="0" style="stop-color:#09005D"/>
						<stop  offset="1" style="stop-color:#1A0F91"/>
					</linearGradient>
					<path style="fill:url(#SVGID_00000005257266893486072300000012402985829279649681_);" d="M1671.871,1456.837
						c-20.537-2.385-49.986-3.243-81.828,4.049c10.491,54.8,8.907,111.918-3.226,171.062l89.809,0
						c14.319,0,26.528-10.401,28.761-24.544c4.476-28.35,9.948-75.999,4.113-114.269
						C1706.574,1473.928,1691.17,1459.078,1671.871,1456.837z"/>
					<path style="fill:#91B3FA;" d="M1617.973,1499.849h69.971c2.722,0,5.222-1.486,6.523-3.877c1.301-2.391,1.19-5.296-0.29-7.581
						c-0.849-1.318-2.613-1.691-3.93-0.84c-1.318,0.851-1.693,2.611-0.84,3.93c0.505,0.783,0.215,1.503,0.067,1.775
						c-0.148,0.274-0.594,0.909-1.528,0.909h-69.971c-0.96,0-1.741-0.781-1.741-1.739v-4.978c0-0.96,0.781-1.741,1.741-1.741h70.491
						c1.569,0,2.842-1.273,2.842-2.842c0-1.569-1.273-2.842-2.842-2.842h-70.491c-4.095,0-7.426,3.331-7.426,7.426v4.978
						C1610.547,1496.519,1613.878,1499.849,1617.973,1499.849z"/>
					<path style="fill:#91B3FA;" d="M1624.213,1530.839h69.971c2.722,0,5.222-1.484,6.521-3.875
						c1.301-2.391,1.192-5.296-0.287-7.581c-0.853-1.321-2.613-1.697-3.93-0.844c-1.319,0.853-1.695,2.613-0.844,3.93
						c0.507,0.785,0.216,1.504,0.069,1.778c-0.148,0.272-0.594,0.907-1.529,0.907h-69.971c-0.96,0-1.741-0.781-1.741-1.739v-4.978
						c0-0.96,0.781-1.741,1.741-1.741h70.491c1.569,0,2.842-1.273,2.842-2.842s-1.273-2.842-2.842-2.842h-70.491
						c-4.095,0-7.426,3.331-7.426,7.426v4.978C1616.787,1527.508,1620.118,1530.839,1624.213,1530.839z"/>
					<path style="opacity:0.7;fill:#FFFFFF;" d="M1538.023,1455.598c1.205,0,2.324-0.772,2.709-1.98
						c0.475-1.497-0.352-3.094-1.847-3.572l-330.652-105.22c-1.497-0.477-3.096,0.353-3.571,1.847
						c-0.476,1.497,0.351,3.094,1.847,3.571l330.652,105.22C1537.447,1455.555,1537.738,1455.598,1538.023,1455.598z"/>
					<path style="opacity:0.7;fill:#FFFFFF;" d="M1582.735,1473.876c1.121,0,2.184-0.666,2.633-1.767
						c0.594-1.453-0.104-3.112-1.556-3.706l-17.017-6.956c-1.453-0.596-3.114,0.104-3.706,1.556
						c-0.594,1.453,0.104,3.113,1.556,3.707l17.017,6.956C1582.013,1473.81,1582.378,1473.876,1582.735,1473.876z"/>
					<path style="fill:#91B3FA;" d="M1617.973,1567.133h69.971c2.722,0,5.22-1.486,6.521-3.875c1.301-2.392,1.192-5.298-0.287-7.583
						c-0.853-1.321-2.615-1.695-3.93-0.844c-1.319,0.853-1.695,2.613-0.844,3.93c0.509,0.785,0.217,1.506,0.068,1.778
						c-0.148,0.274-0.596,0.908-1.528,0.908h-69.971c-0.96,0-1.741-0.781-1.741-1.741v-4.978c0-0.958,0.781-1.739,1.741-1.739
						h70.491c1.569,0,2.842-1.273,2.842-2.842c0-1.569-1.273-2.842-2.842-2.842h-70.491c-4.095,0-7.426,3.331-7.426,7.424v4.978
						C1610.547,1563.802,1613.878,1567.133,1617.973,1567.133z"/>
					<path style="fill:#91B3FA;" d="M1611.421,1607.417h69.972c2.722,0,5.22-1.486,6.521-3.877c1.301-2.391,1.192-5.296-0.287-7.581
						c-0.853-1.321-2.613-1.697-3.93-0.844c-1.319,0.853-1.695,2.613-0.844,3.93c0.507,0.785,0.217,1.504,0.068,1.778
						c-0.15,0.274-0.596,0.909-1.529,0.909h-69.972c-0.958,0-1.74-0.781-1.74-1.739v-4.979c0-0.959,0.781-1.74,1.74-1.74h70.492
						c1.569,0,2.842-1.273,2.842-2.842c0-1.569-1.273-2.842-2.842-2.842h-70.492c-4.093,0-7.424,3.331-7.424,7.424v4.979
						C1603.997,1604.087,1607.327,1607.417,1611.421,1607.417z"/>
					<path style="fill:#91B3FA;" d="M1548.922,1826.443c3.299,0,6.634-0.357,9.961-1.081c14.552-3.172,26.4-12.766,32.505-26.326
						l55.904-124.198c0.644-1.43,0.005-3.112-1.427-3.758c-1.429-0.642-3.114-0.006-3.758,1.427l-55.904,124.196
						c-5.357,11.9-15.756,20.321-28.53,23.104c-12.546,2.729-25.245-0.513-34.838-8.904c-0.524-0.457-1.046-0.927-1.571-1.406
						c-1.156-1.062-2.953-0.981-4.015,0.178c-1.06,1.158-0.981,2.957,0.178,4.015c0.559,0.513,1.114,1.009,1.669,1.493
						C1527.509,1822.546,1538.014,1826.443,1548.922,1826.443z"/>
					<path style="fill:#91B3FA;" d="M1652.963,1658.151c1.084,0,2.12-0.624,2.594-1.677l6.236-13.856
						c0.644-1.43,0.006-3.114-1.427-3.758c-1.427-0.644-3.116-0.006-3.758,1.427l-6.236,13.856c-0.644,1.43-0.005,3.114,1.427,3.758
						C1652.177,1658.071,1652.573,1658.151,1652.963,1658.151z"/>
					<path style="fill:#91B3FA;" d="M1116.474,1516.696c1.477,0,2.726-1.143,2.831-2.641c1.219-17.198,7.148-30.003,17.618-38.058
						c18.147-13.956,44.261-9.18,44.525-9.126c1.543,0.29,3.031-0.716,3.325-2.258c0.294-1.54-0.713-3.029-2.252-3.325
						c-1.17-0.224-28.826-5.333-49.029,10.177c-11.835,9.086-18.516,23.281-19.857,42.187c-0.111,1.565,1.068,2.925,2.633,3.036
						C1116.337,1516.694,1116.405,1516.696,1116.474,1516.696z"/>
				</g>
				
					<linearGradient id="SVGID_00000079475696671141750790000001494084692853226921_" gradientUnits="userSpaceOnUse" x1="-3527.9897" y1="1693.926" x2="-3452.8867" y2="1693.926" gradientTransform="matrix(-1 0 0 1 -1919.5876 0)">
					<stop  offset="0" style="stop-color:#FF928E"/>
					<stop  offset="1" style="stop-color:#FEB3B1"/>
				</linearGradient>
				<path style="fill:url(#SVGID_00000079475696671141750790000001494084692853226921_);" d="M1592.841,1670.83
					c0,0-22.772-19.331-40.569,0c-17.797,19.331-21.316,53.065-17.696,54.713C1538.198,1727.191,1648.238,1699.868,1592.841,1670.83
					z"/>
				<g>
					
						<linearGradient id="SVGID_00000104671040874465550010000005083519623488815528_" gradientUnits="userSpaceOnUse" x1="659.2535" y1="-9891.0322" x2="608.8253" y2="-9771.6855" gradientTransform="matrix(-0.9963 -0.0858 -0.0858 0.9963 -2065.2366 -48.9289)">
						<stop  offset="0" style="stop-color:#FF928E"/>
						<stop  offset="1" style="stop-color:#FEB3B1"/>
					</linearGradient>
					<path style="fill:url(#SVGID_00000104671040874465550010000005083519623488815528_);" d="M1808.597,1389.599
						c0,0-32.338,59.687-36.955,92.079c-4.617,32.392-13.45,52.908,23.62,62.705c37.07,9.797,70.389-6.22,90.358-37.162
						c0,0,31.215-47.64,26.941-68.62C1908.287,1417.621,1808.597,1389.599,1808.597,1389.599z"/>
					
						<linearGradient id="SVGID_00000147929297771026248180000003245877328067570333_" gradientUnits="userSpaceOnUse" x1="-4086.384" y1="1061.8057" x2="-3942.1199" y2="1247.5457" gradientTransform="matrix(-0.9963 -0.0858 -0.0858 0.9963 -2065.2366 -48.9289)">
						<stop  offset="0" style="stop-color:#09005D"/>
						<stop  offset="1" style="stop-color:#1A0F91"/>
					</linearGradient>
					<path style="fill:url(#SVGID_00000147929297771026248180000003245877328067570333_);" d="M1874.768,1482.802l-2.061-1.129
						c-2.624-1.437-3.511-4.784-1.913-7.313c6.19-9.797,18.561-32.403,5.667-39.035c-16.616-8.548-83.646-28.34-96.281-53.817
						c-12.143-24.486,2.98-53.441,22.555-60.361c1.31-0.463,2.757,0.119,3.298,1.398l1.314,3.106c0.9,2.126,3.93,2.077,4.759-0.078
						c0.797-2.068,3.653-2.237,4.662-0.263c3.901,7.633,15.106,20.427,47.255,29.271c45.691,12.569,74.768,34.002,72.768,66.151
						c-0.127,2.043,1.943,3.363,3.776,2.452c3.608-1.794,9.178-2.302,15.979,4.495c11.827,11.82,4.213,39.182-25.71,59.652
						c-1.421,0.972-1.589,3.047-0.232,4.106c4.783,3.735,11.661,12.235-8.814,21.012c-21.178,9.078-36.22,6.888-41.959,5.426
						c-1.428-0.364-2.24-1.846-1.801-3.253l8.643-27.663c0.489-1.566-0.595-3.182-2.23-3.323L1874.768,1482.802z"/>
					
						<linearGradient id="SVGID_00000141454553147301458130000003067795272343625359_" gradientUnits="userSpaceOnUse" x1="615.7195" y1="-9909.1895" x2="565.2922" y2="-9789.8457" gradientTransform="matrix(-0.9963 -0.0858 -0.0858 0.9963 -2065.2366 -48.9289)">
						<stop  offset="0" style="stop-color:#FF928E"/>
						<stop  offset="1" style="stop-color:#FEB3B1"/>
					</linearGradient>
					<path style="fill:url(#SVGID_00000141454553147301458130000003067795272343625359_);" d="M1873.086,1488.651
						c0,0,13.711-38.725,30.515-26.089c16.803,12.637-13.04,43.59-27.446,43.843L1873.086,1488.651z"/>
				</g>
			</g>
			<path style="fill:#7D97F4;" d="M550.467,1986.422c310.949,38.672,682.724,64.796,1100.342,23.153
				c379.693-37.861,777.868,101.312,1063.327-17.213c2.417-0.014,4.013,2.409,2.821,4.434
				c-61.113,103.764-53.508,371.398-59.838,605.804c-0.043,1.602-1.407,2.695-3.056,2.912
				c-377.213,49.5-690.001-2.805-987.116,7.165c-430.999,14.462-810.148,45.819-1066.398-44.441
				c-1.279-0.451-2.31-1.113-2.734-2.359C543.018,2404.572,525.298,2193.666,550.467,1986.422z"/>
			<g>
				
					<linearGradient id="SVGID_00000160159879783782382060000001715859862513592223_" gradientUnits="userSpaceOnUse" x1="950.3662" y1="1920.6509" x2="1084.2501" y2="1920.6509">
					<stop  offset="0" style="stop-color:#FF928E"/>
					<stop  offset="1" style="stop-color:#FEB3B1"/>
				</linearGradient>
				<path style="fill:url(#SVGID_00000160159879783782382060000001715859862513592223_);" d="M950.366,1785.46
					c12.672-46.779,33.164-75.235,68.628-68.628c27.288,67.018,47.784,149.698,65.256,240.789
					c-5.159,42.686-29.781,107.283-58.512,167.797h-44.43l33.322-171.962C988.289,1906.825,967.884,1849.486,950.366,1785.46z"/>
				
					<linearGradient id="SVGID_00000048462030358633510520000013123584692581288618_" gradientUnits="userSpaceOnUse" x1="954.3278" y1="2137.7236" x2="1055.8865" y2="2137.7236">
					<stop  offset="0" style="stop-color:#FF928E"/>
					<stop  offset="1" style="stop-color:#FEB3B1"/>
				</linearGradient>
				<path style="fill:url(#SVGID_00000048462030358633510520000013123584692581288618_);" d="M1055.886,2126.616
					c0,7.449-46.535,35.702-74.578,35.702c-28.043,0-26.975-28.253-26.975-35.702s22.733-13.488,50.777-13.488
					C1033.153,2113.129,1055.886,2119.167,1055.886,2126.616z"/>
			</g>
			<g>
				
					<linearGradient id="SVGID_00000038388428046880480280000000817075908455963559_" gradientUnits="userSpaceOnUse" x1="2561.564" y1="1485.6412" x2="2829.3301" y2="2485.6628">
					<stop  offset="0" style="stop-color:#FE7062"/>
					<stop  offset="1" style="stop-color:#FF928E"/>
				</linearGradient>
				<path style="fill:url(#SVGID_00000038388428046880480280000000817075908455963559_);" d="M2655.77,1600.731
					c0,0,329.479,357.401-58.636,494.219v-27.922c0,0,145.193-122.858,33.506-290.389
					C2630.64,1776.639,2644.602,1617.484,2655.77,1600.731z"/>
				
					<linearGradient id="SVGID_00000062166537651209089940000015858575684678828442_" gradientUnits="userSpaceOnUse" x1="2878.4966" y1="1391.2755" x2="2714.5588" y2="1735.5452">
					<stop  offset="0" style="stop-color:#A22B25"/>
					<stop  offset="1" style="stop-color:#C0423C"/>
				</linearGradient>
				<path style="fill:url(#SVGID_00000062166537651209089940000015858575684678828442_);" d="M2594.342,2069.82
					c0,0-50.259-33.507-72.597-22.337c-22.338,11.168-22.338,27.921-22.338,27.921s11.168,22.338,27.922,16.752
					c16.753-5.583,55.844,5.586,72.597,0C2599.927,2092.156,2605.511,2069.82,2594.342,2069.82z"/>
			</g>
		</g>
	</g>
</g>
</svg>
