<?xml version="1.0" standalone="no"?>
<!DOCTYPE svg PUBLIC "-//W3C//DTD SVG 20010904//EN"
 "http://www.w3.org/TR/2001/REC-SVG-20010904/DTD/svg10.dtd">
<svg version="1.0" xmlns="http://www.w3.org/2000/svg"
 width="1000.000000pt" height="1080.000000pt" viewBox="0 0 1000.000000 1080.000000"
 preserveAspectRatio="xMidYMid meet">

<g transform="translate(0.000000,1080.000000) scale(0.100000,-0.100000)"
fill="#000000" stroke="none">
<path d="M5140 9445 c-204 -29 -439 -127 -601 -249 -504 -381 -680 -1030 -438
-1613 60 -142 159 -290 281 -415 75 -78 81 -98 79 -258 -3 -196 32 -414 84
-528 14 -30 25 -56 25 -57 0 -2 -11 -6 -25 -9 -32 -8 -55 -54 -55 -108 1 -113
113 -248 237 -284 49 -14 59 -14 101 0 45 14 49 14 95 -7 l48 -22 -6 -90 c-4
-49 -13 -126 -21 -170 -30 -161 -34 -191 -34 -235 0 -25 7 -58 15 -73 11 -21
12 -34 4 -55 -39 -102 -48 -248 -24 -375 8 -43 15 -103 15 -133 0 -62 9 -57
-131 -74 -300 -37 -768 -64 -1009 -58 l-135 3 -18 95 c-9 52 -15 100 -13 107
3 7 38 14 86 19 44 3 83 11 86 16 3 5 -6 37 -22 71 -24 54 -28 81 -36 206 -4
79 -12 160 -18 180 -5 20 -10 39 -10 42 0 4 36 -12 81 -35 78 -39 85 -41 173
-41 100 0 126 9 192 67 129 113 164 344 82 536 -10 24 -18 45 -18 48 0 2 34
26 76 55 63 42 80 60 100 102 29 63 32 132 6 146 -26 14 -48 -3 -77 -57 -18
-36 -24 -42 -25 -24 0 37 -30 39 -59 5 -119 -138 -121 -141 -121 -167 0 -11
-6 -27 -14 -35 -8 -9 -24 -53 -35 -99 -31 -118 -78 -246 -103 -271 -27 -29
-49 -24 -152 40 -99 60 -186 81 -328 78 -54 -1 -101 1 -104 3 -3 3 0 26 6 50
9 36 18 48 46 61 38 19 41 31 19 85 -9 20 -13 47 -10 59 3 15 -1 26 -17 37
-19 14 -20 18 -9 40 8 13 11 38 9 56 -3 17 -1 33 4 36 15 10 8 61 -12 79 -11
10 -20 27 -20 37 0 11 -13 33 -30 50 -16 16 -30 37 -30 47 0 10 -11 28 -25 41
-18 17 -31 21 -54 17 -19 -4 -33 -1 -41 8 -7 8 -25 15 -40 15 -15 0 -33 7 -40
15 -13 16 -61 21 -74 8 -4 -5 -24 -9 -44 -9 -52 -2 -145 -18 -161 -29 -12 -7
-13 27 -8 220 4 126 7 334 7 463 l0 235 283 -6 c256 -6 285 -5 317 11 68 34
68 35 72 445 l3 368 -36 33 -35 33 -229 6 c-377 11 -881 9 -909 -5 -61 -27
-61 -28 -64 -435 l-3 -372 29 -32 c26 -29 38 -34 98 -40 38 -5 156 -8 262 -8
l192 -1 0 -460 0 -459 -29 -16 c-18 -9 -35 -29 -42 -49 -8 -21 -17 -32 -25
-29 -7 3 -24 -6 -38 -20 l-24 -24 -18 46 c-50 134 -164 317 -226 365 -42 31
-72 43 -183 70 -84 21 -91 24 -107 57 -9 19 -18 59 -20 90 -4 49 -2 57 16 65
18 7 22 20 24 72 2 34 7 62 12 62 17 0 11 24 -16 63 l-25 38 41 46 c40 43 42
48 38 95 -4 39 -12 57 -36 81 l-32 31 -46 -22 c-25 -13 -83 -30 -128 -38 -160
-30 -199 -51 -231 -126 -38 -93 -1 -156 169 -283 l38 -29 -4 -63 c-3 -52 -9
-68 -32 -92 -31 -33 -42 -37 -169 -75 -156 -47 -246 -146 -310 -343 -56 -169
-87 -284 -87 -322 0 -38 32 -112 56 -132 26 -21 82 -13 136 20 27 17 51 31 54
31 2 0 4 -143 4 -317 0 -361 -1 -354 83 -414 l44 -31 7 -199 c15 -434 66 -841
153 -1223 20 -88 44 -219 52 -291 l17 -130 -24 -75 c-13 -41 -26 -109 -29
-150 -5 -68 -3 -77 17 -95 20 -18 36 -20 167 -20 138 0 146 1 163 23 16 20 27
22 108 22 96 0 122 12 122 57 0 25 -93 284 -117 323 -15 26 -15 30 14 81 17
30 53 92 82 138 l51 84 0 -110 c0 -76 4 -114 12 -121 7 -5 112 -18 233 -27
121 -10 223 -21 226 -24 7 -6 23 -202 35 -414 l7 -118 -61 7 c-77 8 -89 0 -97
-74 -4 -31 -15 -91 -26 -134 -28 -111 -25 -144 16 -214 57 -94 76 -101 163
-58 34 17 58 37 69 58 8 17 17 32 18 34 1 2 24 -2 50 -9 l47 -12 -5 -66 c-3
-36 -9 -84 -13 -106 -5 -35 -2 -46 22 -74 61 -72 189 -133 310 -146 81 -10
119 9 134 66 19 70 -19 120 -173 226 -30 21 -55 50 -74 85 -25 49 -28 64 -34
218 -11 249 1 710 17 710 11 0 12 -52 8 -277 l-6 -278 37 50 c39 53 177 328
216 431 l23 60 345 2 346 1 37 -63 c54 -92 123 -172 190 -222 74 -54 127 -70
180 -55 56 17 62 36 32 110 -31 77 -47 172 -39 229 5 36 10 42 30 42 13 0 137
16 276 35 139 19 254 33 257 31 2 -2 8 -37 13 -78 14 -117 30 -197 43 -207 6
-5 20 -11 31 -14 19 -4 18 -5 -2 -6 -17 -1 -22 -8 -25 -33 -2 -27 -7 -33 -27
-33 -34 0 -58 -44 -71 -133 -15 -94 -4 -114 78 -139 78 -25 320 -25 372 -1 48
23 90 69 93 103 2 31 -2 34 -107 80 -33 14 -83 46 -112 70 -29 25 -59 45 -68
45 -10 0 -16 8 -16 21 0 16 -4 20 -17 15 -16 -5 -15 -4 1 9 10 8 22 16 27 17
4 2 26 72 48 157 22 85 44 158 48 162 9 7 368 39 446 39 l47 0 0 -188 c0 -309
20 -682 47 -890 4 -30 1 -48 -10 -60 -27 -31 -56 -98 -77 -178 -25 -96 -25
-99 0 -124 17 -17 33 -20 111 -20 50 0 98 4 108 10 32 17 44 63 32 120 -6 28
-11 85 -11 125 0 47 -4 75 -11 75 -14 0 -2 61 15 75 7 6 18 55 24 110 16 133
73 470 125 739 l42 219 115 -2 c63 -1 116 -4 118 -6 10 -10 98 -457 171 -874
21 -123 43 -226 48 -230 22 -14 23 -85 1 -129 -30 -62 -32 -197 -4 -218 31
-22 478 -21 500 2 27 27 18 55 -32 104 -49 47 -221 140 -260 140 -17 0 -21 8
-24 48 -3 26 0 53 5 60 14 17 1 659 -17 887 -8 99 -13 182 -10 184 8 8 218
-20 369 -50 83 -16 156 -29 163 -29 9 0 12 125 12 589 0 553 -1 590 -17 595
-69 19 -422 76 -478 76 -16 0 -35 4 -42 8 -11 7 -87 376 -81 393 2 4 37 -13
78 -38 115 -71 248 -130 320 -144 55 -10 71 -9 102 4 72 30 124 151 161 372
15 89 27 135 39 147 22 22 23 64 3 157 -14 67 -14 73 5 103 38 63 15 148 -40
148 -11 0 -20 6 -20 13 0 6 -3 22 -6 33 -5 20 -1 22 68 28 l73 7 280 -132
c249 -117 286 -132 336 -133 46 -1 62 4 92 27 41 31 76 92 104 182 28 93 26
381 -5 532 -94 469 -351 781 -523 636 -17 -15 -117 -126 -221 -247 l-190 -221
-242 -90 c-264 -99 -384 -162 -474 -249 -62 -60 -76 -98 -61 -168 22 -99 94
-140 291 -163 108 -13 142 -13 266 0 44 5 53 -5 27 -31 -14 -14 -21 -68 -15
-119 1 -11 11 -35 22 -53 20 -33 20 -34 2 -90 -26 -83 -80 -220 -99 -248 -14
-21 -19 -23 -38 -13 -12 7 -83 73 -157 149 -202 205 -248 230 -421 230 -59 0
-100 4 -104 11 -4 6 -9 37 -12 69 -5 57 -5 60 20 69 31 12 57 58 57 100 0 16
5 33 10 36 17 10 11 36 -15 67 -30 35 -32 54 -6 67 23 13 51 70 51 105 0 42
-48 87 -100 93 -38 4 -56 -1 -113 -31 -38 -20 -80 -36 -93 -36 -33 0 -85 -23
-107 -47 -26 -30 -32 -84 -13 -121 9 -17 16 -50 16 -72 0 -47 14 -80 35 -80 7
0 19 -16 25 -35 6 -19 20 -40 31 -45 17 -9 18 -18 13 -68 -10 -93 -15 -97
-151 -116 -157 -23 -196 -38 -267 -105 -148 -141 -256 -333 -256 -454 0 -41 6
-63 29 -99 28 -44 122 -126 207 -180 40 -25 40 -26 35 -74 l-6 -49 -100 -6
c-55 -4 -143 -10 -195 -14 l-96 -7 -38 103 c-21 57 -56 142 -77 188 -39 83
-39 85 -21 105 11 12 22 26 26 33 14 26 36 219 46 408 13 270 9 258 81 289
238 103 396 291 466 553 22 85 26 120 27 258 1 150 2 162 24 189 12 16 22 42
22 57 0 29 -30 69 -52 69 -6 0 31 42 83 93 267 266 402 589 402 962 0 229 -43
409 -148 613 -262 512 -825 801 -1395 717z m421 -31 c261 -45 493 -163 690
-351 199 -191 327 -425 386 -703 22 -105 24 -359 4 -470 -30 -171 -108 -363
-206 -509 -100 -150 -263 -311 -315 -311 -32 0 -65 -24 -83 -60 -16 -33 -162
-109 -287 -150 -137 -45 -255 -63 -410 -63 -226 0 -409 45 -612 150 -96 50
-109 59 -103 77 4 12 9 35 12 53 10 63 -66 95 -139 57 l-31 -16 -80 83 c-174
184 -287 402 -343 660 -26 117 -26 390 0 507 37 174 107 341 203 484 65 97
223 260 321 331 155 111 363 199 547 231 112 20 331 20 446 0z m-3013 -1211
c-32 -2 -86 -2 -120 0 -35 2 -9 3 57 3 66 0 94 -1 63 -3z m180 0 c-15 -2 -42
-2 -60 0 -18 2 -6 4 27 4 33 0 48 -2 33 -4z m450 -10 c-10 -2 -28 -2 -40 0
-13 2 -5 4 17 4 22 1 32 -1 23 -4z m85 0 c-7 -2 -19 -2 -25 0 -7 3 -2 5 12 5
14 0 19 -2 13 -5z m125 0 c-21 -2 -55 -2 -75 0 -21 2 -4 4 37 4 41 0 58 -2 38
-4z m-371 -95 c74 -27 145 -95 185 -176 29 -59 33 -76 32 -147 0 -84 -6 -156
-13 -149 -2 2 -20 -23 -41 -55 -97 -150 -292 -202 -455 -122 -212 104 -264
380 -105 554 106 116 248 150 397 95z m-387 -62 c0 -2 -8 -10 -17 -17 -16 -13
-17 -12 -4 4 13 16 21 21 21 13z m857 -58 c-3 -8 -6 -5 -6 6 -1 11 2 17 5 13
3 -3 4 -12 1 -19z m0 -285 c-1 -43 -3 -8 -3 77 0 85 2 120 3 78 2 -43 2 -113
0 -155z m-1200 75 c-3 -7 -5 -2 -5 12 0 14 2 19 5 13 2 -7 2 -19 0 -25z m0
-175 c-2 -16 -4 -3 -4 27 0 30 2 43 4 28 2 -16 2 -40 0 -55z m1200 -30 c-3
-10 -5 -4 -5 12 0 17 2 24 5 18 2 -7 2 -21 0 -30z m-1104 -180 c-7 -2 -21 -2
-30 0 -10 3 -4 5 12 5 17 0 24 -2 18 -5z m90 0 c-7 -2 -19 -2 -25 0 -7 3 -2 5
12 5 14 0 19 -2 13 -5z m480 -10 c-13 -2 -35 -2 -50 0 -16 2 -5 4 22 4 28 0
40 -2 28 -4z m134 0 c-20 -2 -52 -2 -70 0 -17 2 0 4 38 4 39 0 53 -2 32 -4z
m106 0 c-7 -2 -21 -2 -30 0 -10 3 -4 5 12 5 17 0 24 -2 18 -5z m80 0 c-7 -2
-19 -2 -25 0 -7 3 -2 5 12 5 14 0 19 -2 13 -5z m-1160 -183 c19 -33 31 -62 26
-66 -5 -3 -6 -30 -3 -59 6 -52 5 -55 -19 -64 -27 -10 -91 2 -102 19 -9 15 -25
12 -25 -5 0 -14 34 -34 83 -49 13 -4 17 -16 17 -48 0 -72 19 -120 63 -162 l41
-39 -150 5 c-82 3 -157 9 -166 13 -15 6 -13 10 14 29 66 45 73 66 70 214 -2
78 -3 82 -25 82 -13 0 -32 6 -42 14 -18 13 -18 14 3 25 17 9 21 18 16 37 -8
31 11 54 45 54 16 0 40 12 59 30 18 17 39 30 46 30 7 0 29 -27 49 -60z m6187
-74 c54 -35 121 -123 174 -226 57 -111 88 -199 120 -340 76 -344 42 -653 -83
-737 -90 -60 -205 8 -309 182 -122 206 -204 554 -188 795 11 173 45 270 112
330 34 29 42 32 85 28 29 -3 64 -16 89 -32z m-3692 -28 c6 -50 -19 -75 -92
-94 -20 -5 -25 0 -35 26 -22 65 9 101 84 97 35 -2 40 -5 43 -29z m1601 -67
c23 -23 18 -51 -15 -82 -65 -61 -176 18 -117 83 23 26 106 25 132 -1z m-1531
-80 c125 -74 305 -135 475 -162 100 -15 378 -6 467 16 116 28 223 67 322 116
l98 49 6 -25 c3 -14 -4 -73 -15 -132 -52 -256 -157 -392 -366 -474 -44 -17
-97 -40 -117 -50 -31 -16 -50 -18 -110 -12 l-72 6 38 14 c60 20 64 27 64 101
0 52 6 80 26 122 32 67 34 132 6 177 -27 45 -57 50 -116 20 -27 -13 -74 -30
-104 -36 -70 -15 -90 -29 -140 -96 -67 -90 -112 -103 -215 -59 -33 14 -87 34
-120 43 l-60 17 -42 87 c-42 86 -113 276 -113 303 0 22 16 17 88 -25z m-88
-83 c77 -218 182 -406 321 -573 103 -123 98 -120 154 -101 29 10 52 13 63 7
31 -16 275 -82 287 -78 6 3 17 30 24 61 12 54 13 56 46 56 18 0 55 11 82 24
26 14 83 39 126 56 196 80 309 224 358 456 12 54 23 104 24 109 2 6 22 9 48 7
l46 -4 7 -65 c15 -145 -24 -359 -89 -489 -88 -175 -219 -294 -407 -371 -67
-27 -64 -17 -79 -303 -13 -241 -34 -396 -58 -422 -21 -23 -97 -24 -278 -3
-190 23 -261 46 -304 101 -28 35 -27 83 4 258 14 78 26 183 27 235 3 100 6 93
-57 122 -44 21 -145 125 -230 239 -95 128 -119 170 -150 258 -42 121 -75 381
-60 471 6 36 10 41 35 41 25 0 29 -6 60 -92z m3370 59 c0 -2 -10 -12 -22 -23
l-23 -19 19 23 c18 21 26 27 26 19z m-70 -80 c0 -2 -10 -12 -22 -23 l-23 -19
19 23 c18 21 26 27 26 19z m87 -34 c-3 -10 -5 -4 -5 12 0 17 2 24 5 18 2 -7 2
-21 0 -30z m-137 -26 c0 -2 -12 -14 -27 -28 l-28 -24 24 28 c23 25 31 32 31
24z m-5531 -57 c86 -25 134 -67 202 -172 54 -85 141 -266 133 -279 -2 -4 -29
-21 -59 -38 -30 -17 -55 -35 -55 -39 0 -4 29 -176 65 -382 36 -206 63 -384 61
-395 -3 -11 -16 -33 -29 -49 l-24 -29 -42 124 c-60 175 -68 190 -116 206 -121
41 -334 38 -476 -8 -91 -29 -208 -88 -224 -113 -9 -13 -16 -70 -21 -154 l-7
-132 -31 23 c-70 55 -68 38 -66 405 l1 330 79 77 c43 43 107 111 142 152 41
49 77 80 106 93 26 12 50 32 63 54 17 30 27 36 53 36 45 0 93 18 100 37 4 9 5
18 3 20 -10 9 -215 43 -235 38 -13 -3 -42 -23 -65 -44 -23 -21 -114 -81 -202
-134 -88 -52 -185 -113 -214 -136 -30 -22 -57 -39 -59 -37 -5 5 52 195 83 276
48 126 142 219 259 257 60 19 68 20 118 6 74 -21 392 -31 403 -13 5 8 1 18
-10 27 -25 18 -14 17 64 -7z m5668 -57 c-2 -16 -4 -3 -4 27 0 30 2 43 4 28 2
-16 2 -40 0 -55z m-327 -68 c-47 -124 1 -378 96 -502 14 -18 24 -33 22 -34
-27 -9 -447 -34 -460 -28 -67 35 -130 245 -108 360 6 30 16 60 24 67 11 12
427 171 434 167 1 -1 -2 -15 -8 -30z m-2234 -103 c17 -35 28 -65 24 -67 -4 -3
-5 -25 -3 -50 5 -41 4 -45 -21 -55 -44 -16 -84 -12 -98 10 -14 21 -38 27 -38
9 0 -6 14 -24 30 -39 17 -15 30 -33 30 -39 0 -6 18 -14 40 -17 44 -7 45 -11
29 -67 -6 -24 -15 -37 -23 -34 -6 3 -48 15 -91 27 -88 24 -122 39 -93 40 18 0
28 27 50 132 11 54 11 59 -10 81 -26 27 -31 57 -7 37 19 -16 49 -5 41 15 -8
22 4 45 24 45 10 0 28 9 41 20 13 10 29 18 34 16 6 -1 24 -30 41 -64z m-3383
-3 c92 -15 108 -29 34 -29 -55 0 -57 -1 -71 -34 -15 -36 -50 -66 -77 -66 -9 0
-45 -34 -80 -76 -145 -173 -338 -334 -401 -334 -9 0 -29 17 -43 37 -33 50 -33
102 0 141 32 38 165 128 325 222 69 39 144 90 167 111 48 44 46 43 146 28z
m5136 -101 c-15 -82 15 -224 66 -316 l24 -43 -72 7 c-40 4 -80 11 -90 16 -49
25 -95 211 -68 276 8 18 34 41 74 65 34 20 65 37 68 37 4 0 3 -19 -2 -42z
m508 -5 c-3 -10 -5 -4 -5 12 0 17 2 24 5 18 2 -7 2 -21 0 -30z m-977 -155 c12
-29 30 -62 39 -72 12 -14 13 -20 4 -23 -8 -3 -13 -22 -13 -49 0 -84 -67 -109
-130 -49 -30 28 -40 31 -40 11 0 -17 56 -66 74 -66 9 0 15 -21 19 -60 3 -33
14 -78 24 -99 l20 -39 -26 -12 c-40 -18 -131 -24 -180 -10 l-44 12 26 21 c36
30 44 57 52 174 6 87 5 101 -9 106 -25 10 -20 46 9 57 31 12 40 32 26 58 -10
18 -6 23 27 39 20 10 39 27 41 38 9 54 50 35 81 -37z m284 48 c-3 -8 -13 -17
-22 -21 -13 -5 -13 -2 3 15 21 24 26 25 19 6z m-27 -83 c-3 -10 -5 -2 -5 17 0
19 2 27 5 18 2 -10 2 -26 0 -35z m-4300 29 c18 -11 12 -69 -9 -88 -22 -21 -24
-72 -2 -102 18 -26 13 -27 -27 -7 -34 18 -44 38 -54 112 l-7 52 39 20 c44 23
44 23 60 13z m1722 -58 c-20 -69 -37 -92 -118 -147 -61 -42 -85 -53 -106 -50
-18 4 -24 10 -21 20 3 8 6 20 6 26 0 7 14 28 31 47 17 19 42 50 56 68 30 37
43 36 18 -2 -18 -26 -13 -46 10 -46 14 0 85 77 85 92 0 5 7 20 17 34 23 35 36
10 22 -42z m3701 11 c0 -5 -5 -3 -10 5 -5 8 -10 20 -10 25 0 6 5 3 10 -5 5 -8
10 -19 10 -25z m-1102 -50 c-3 -3 -9 2 -12 12 -6 14 -5 15 5 6 7 -7 10 -15 7
-18z m817 -25 c10 -11 16 -20 13 -20 -3 0 -13 9 -23 20 -10 11 -16 20 -13 20
3 0 13 -9 23 -20z m-4448 -62 c32 -29 57 -59 55 -66 -2 -8 4 -32 12 -53 9 -22
16 -43 16 -48 0 -14 -58 -31 -102 -31 -47 0 -49 -23 -2 -28 l29 -3 0 -77 c0
-42 4 -85 9 -96 9 -18 5 -18 -80 -11 -49 4 -91 9 -93 10 -2 2 11 52 29 110 18
58 31 107 29 109 -2 1 -16 10 -31 19 -16 10 -28 25 -28 34 0 14 2 14 19 -1 24
-22 41 -13 41 21 0 13 9 36 20 50 15 20 18 34 13 69 -3 24 -3 44 1 44 3 0 32
-23 63 -52z m4807 -24 c3 -8 2 -12 -4 -9 -6 3 -10 10 -10 16 0 14 7 11 14 -7z
m-5496 -38 c7 -5 10 -16 7 -23 -7 -19 12 -53 30 -53 10 0 15 -11 15 -32 0 -33
24 -68 47 -68 7 0 13 -7 13 -15 0 -27 47 -65 79 -65 19 0 40 -9 56 -25 21 -22
34 -26 78 -25 28 1 69 -2 90 -6 31 -5 45 -2 68 15 35 26 43 27 29 1 -6 -11
-17 -20 -26 -20 -59 0 -272 -106 -389 -194 -33 -24 -61 -43 -62 -42 -3 2 -103
568 -103 579 0 7 48 -12 68 -27z m4989 12 c-3 -8 -6 -5 -6 6 -1 11 2 17 5 13
3 -3 4 -12 1 -19z m-76 -224 c33 -158 35 -174 19 -174 -10 0 -27 8 -39 18 -20
16 -20 19 -6 66 21 67 19 89 -10 145 -21 39 -24 56 -19 90 4 23 9 39 13 36 3
-4 22 -85 42 -181z m-3431 172 c0 -2 -7 -6 -15 -10 -8 -3 -15 -1 -15 4 0 6 7
10 15 10 8 0 15 -2 15 -4z m3490 -10 c-7 -7 -13 -7 -20 0 -6 6 -3 10 10 10 13
0 16 -4 10 -10z m110 -31 c10 -26 -6 -89 -20 -80 -5 3 -20 1 -35 -5 -14 -5
-38 -7 -51 -4 -38 10 -30 61 15 91 45 31 79 30 91 -2z m-147 0 c-3 -9 -8 -14
-10 -11 -3 3 -2 9 2 15 9 16 15 13 8 -4z m-775 -102 c-10 -2 -26 -2 -35 0 -10
3 -2 5 17 5 19 0 27 -2 18 -5z m49 1 c-3 -3 -12 -4 -19 -1 -8 3 -5 6 6 6 11 1
17 -2 13 -5z m758 -24 c3 -6 -1 -7 -9 -4 -18 7 -21 14 -7 14 6 0 13 -4 16 -10z
m-3387 -56 l-3 -39 -5 47 c-3 26 -1 43 3 39 5 -5 7 -26 5 -47z m2167 46 c3 -6
-1 -7 -9 -4 -18 7 -21 14 -7 14 6 0 13 -4 16 -10z m-58 -6 c-3 -3 -12 -4 -19
-1 -8 3 -5 6 6 6 11 1 17 -2 13 -5z m664 -11 c13 -16 12 -17 -3 -4 -10 7 -18
15 -18 17 0 8 8 3 21 -13z m606 -15 c-3 -8 -6 -5 -6 6 -1 11 2 17 5 13 3 -3 4
-12 1 -19z m-1060 -14 c-3 -3 -12 -4 -19 -1 -8 3 -5 6 6 6 11 1 17 -2 13 -5z
m50 0 c-3 -3 -12 -4 -19 -1 -8 3 -5 6 6 6 11 1 17 -2 13 -5z m-3089 -31 c-15
-2 -42 -2 -60 0 -18 2 -6 4 27 4 33 0 48 -2 33 -4z m109 -9 c-3 -3 -12 -4 -19
-1 -8 3 -5 6 6 6 11 1 17 -2 13 -5z m63 -14 c18 -12 2 -12 -25 0 -13 6 -15 9
-5 9 8 0 22 -4 30 -9z m547 -37 c-3 -10 -5 -2 -5 17 0 19 2 27 5 18 2 -10 2
-26 0 -35z m3480 25 c-3 -8 -6 -5 -6 6 -1 11 2 17 5 13 3 -3 4 -12 1 -19z
m-80 -20 c-3 -8 -6 -5 -6 6 -1 11 2 17 5 13 3 -3 4 -12 1 -19z m-1477 8 c0 -2
-8 -10 -17 -17 -16 -13 -17 -12 -4 4 13 16 21 21 21 13z m-2937 -43 c-7 -2
-21 -2 -30 0 -10 3 -4 5 12 5 17 0 24 -2 18 -5z m105 -10 c-10 -2 -26 -2 -35
0 -10 3 -2 5 17 5 19 0 27 -2 18 -5z m3901 -46 c-2 -3 -15 10 -28 27 l-24 31
28 -27 c16 -15 27 -29 24 -31z m485 35 c3 -5 -1 -9 -9 -9 -8 0 -12 4 -9 9 3 4
7 8 9 8 2 0 6 -4 9 -8z m-1704 -16 c0 -2 -8 -10 -17 -17 -16 -13 -17 -12 -4 4
13 16 21 21 21 13z m1621 -23 c13 -17 13 -17 -6 -3 -11 8 -22 16 -24 17 -2 2
0 3 6 3 6 0 17 -8 24 -17z m-1651 -17 c0 -2 -8 -10 -17 -17 -16 -13 -17 -12
-4 4 13 16 21 21 21 13z m1300 -31 c14 -19 14 -19 -2 -6 -10 7 -18 18 -18 24
0 6 1 8 3 6 1 -2 9 -13 17 -24z m397 -37 c-3 -8 -6 -5 -6 6 -1 11 2 17 5 13 3
-3 4 -12 1 -19z m-5387 -77 c0 -4 -25 -25 -55 -45 l-55 -36 0 -58 c0 -31 13
-109 29 -172 76 -299 97 -661 60 -1020 -17 -168 -49 -343 -81 -443 -31 -95
-32 -97 -50 -79 -18 18 -18 38 -3 698 8 373 15 770 15 881 l0 202 57 40 c54
39 83 51 83 32z m5367 -33 c-3 -8 -6 -5 -6 6 -1 11 2 17 5 13 3 -3 4 -12 1
-19z m-3750 -4 c-3 -3 -12 -4 -19 -1 -8 3 -5 6 6 6 11 1 17 -2 13 -5z m2240
-16 c-3 -8 -6 -5 -6 6 -1 11 2 17 5 13 3 -3 4 -12 1 -19z m-2174 5 c-7 -2 -19
-2 -25 0 -7 3 -2 5 12 5 14 0 19 -2 13 -5z m2230 -38 c-7 -21 -12 -19 -10 4 0
11 5 18 9 15 4 -3 5 -11 1 -19z m1444 3 c-3 -8 -6 -5 -6 6 -1 11 2 17 5 13 3
-3 4 -12 1 -19z m-1790 -30 c-3 -8 -6 -5 -6 6 -1 11 2 17 5 13 3 -3 4 -12 1
-19z m0 -50 c-3 -8 -6 -5 -6 6 -1 11 2 17 5 13 3 -3 4 -12 1 -19z m-3086 -61
c-10 -9 -11 -8 -5 6 3 10 9 15 12 12 3 -3 0 -11 -7 -18z m249 -1 c0 -2 -13 -6
-29 -8 -17 -2 -28 -1 -25 4 5 8 54 12 54 4z m594 -12 c3 -8 2 -12 -4 -9 -6 3
-10 10 -10 16 0 14 7 11 14 -7z m2287 -1 c13 -16 12 -17 -3 -4 -10 7 -18 15
-18 17 0 8 8 3 21 -13z m-2918 -92 c53 -54 97 -105 97 -114 0 -9 -16 -42 -35
-74 -19 -32 -42 -79 -51 -105 -17 -54 -27 -58 -48 -25 -24 38 -156 342 -156
360 0 18 55 57 81 57 8 0 59 -44 112 -99z m-456 57 c-3 -7 -5 -2 -5 12 0 14 2
19 5 13 2 -7 2 -19 0 -25z m2540 -51 c13 -95 42 -177 83 -239 33 -48 36 -58
17 -58 -17 0 -73 93 -98 166 -23 64 -38 214 -22 214 5 0 14 -37 20 -83z m1208
43 c-3 -5 -12 -10 -18 -10 -7 0 -6 4 3 10 19 12 23 12 15 0z m1270 1 c3 -5 2
-12 -3 -15 -5 -3 -9 1 -9 9 0 17 3 19 12 6z m-4494 -58 c13 -16 12 -17 -3 -4
-17 13 -22 21 -14 21 2 0 10 -8 17 -17z m3314 -3 c10 -11 16 -20 13 -20 -3 0
-13 9 -23 20 -10 11 -16 20 -13 20 3 0 13 -9 23 -20z m-2894 -67 c-12 -20 -14
-14 -5 12 4 9 9 14 11 11 3 -2 0 -13 -6 -23z m3018 -45 c34 -5 84 -17 110 -26
40 -15 46 -21 49 -50 3 -27 -5 -40 -52 -87 -30 -30 -59 -55 -65 -55 -6 0 -11
18 -11 41 0 48 -35 86 -119 125 l-53 26 23 24 c14 15 29 22 39 18 8 -4 44 -11
79 -16z m-159 8 c0 -2 -8 -10 -17 -17 -16 -13 -17 -12 -4 4 13 16 21 21 21 13z
m-2683 -42 c-3 -3 -12 -4 -19 -1 -8 3 -5 6 6 6 11 1 17 -2 13 -5z m-60 -10
c-3 -3 -12 -4 -19 -1 -8 3 -5 6 6 6 11 1 17 -2 13 -5z m2760 -20 c-3 -3 -12
-4 -19 -1 -8 3 -5 6 6 6 11 1 17 -2 13 -5z m426 -11 c-7 -2 -21 -2 -30 0 -10
3 -4 5 12 5 17 0 24 -2 18 -5z m150 -10 c-7 -2 -19 -2 -25 0 -7 3 -2 5 12 5
14 0 19 -2 13 -5z m110 -10 c-7 -2 -19 -2 -25 0 -7 3 -2 5 12 5 14 0 19 -2 13
-5z m-567 -31 c15 -12 23 -32 27 -65 2 -26 7 -51 10 -54 16 -15 67 15 123 72
l63 64 153 -10 c250 -15 454 -39 676 -80 l112 -21 0 -565 0 -565 -22 6 c-53
14 -292 56 -408 70 -252 31 -428 39 -810 33 -465 -7 -731 -29 -1340 -112 -521
-71 -913 -92 -1408 -75 -377 13 -1054 59 -1099 75 -10 3 -13 125 -13 565 0
527 1 560 18 560 9 0 63 -7 119 -14 115 -16 151 -35 256 -138 51 -49 66 -58
96 -58 20 0 45 7 56 15 19 15 19 16 -8 70 -15 31 -27 59 -27 63 0 4 39 4 88 1
617 -50 1257 -30 1837 57 296 44 619 83 825 99 274 20 289 21 485 23 148 1
173 -1 191 -16z m-3415 -15 c-10 -9 -11 -8 -5 6 3 10 9 15 12 12 3 -3 0 -11
-7 -18z m-156 -47 c-3 -5 -12 -10 -18 -10 -7 0 -6 4 3 10 19 12 23 12 15 0z
m60 -51 c26 -16 46 -41 70 -89 19 -37 31 -70 28 -74 -19 -18 -62 -3 -98 35
-22 22 -62 56 -88 76 -26 19 -45 38 -42 42 4 3 25 11 48 18 23 6 43 11 44 12
1 1 18 -9 38 -20z m-1125 -164 c6 -30 26 -76 43 -102 26 -39 41 -51 79 -63 52
-16 59 -37 12 -32 -75 8 -150 104 -162 207 -7 65 14 57 28 -10z m518 -910 c9
-3 6 -18 -13 -55 -21 -42 -30 -50 -53 -50 -15 0 -43 -4 -61 -10 -19 -5 -36 -8
-38 -6 -2 2 19 70 41 132 4 11 81 3 124 -11z m-248 -126 l0 -59 -50 0 c-41 0
-51 -4 -62 -22 -12 -22 -13 -21 -19 22 -4 25 -8 62 -8 82 l-1 37 63 3 c34 2
65 2 70 0 4 -2 7 -30 7 -63z m2620 -67 c0 -44 7 -101 15 -127 8 -27 12 -51 9
-54 -10 -10 -85 76 -100 116 -18 46 -45 57 -63 26 -9 -17 -12 -16 -38 9 -15
15 -36 41 -46 57 l-18 30 33 5 c31 6 87 10 171 14 l37 2 0 -78z m-2552 33 c9
4 40 12 69 18 85 18 91 12 152 -157 29 -80 51 -154 49 -163 -2 -14 -17 -20
-58 -24 -74 -9 -117 -2 -123 22 -4 17 3 19 82 21 115 4 112 22 -5 26 l-90 3
-18 48 c-9 26 -35 78 -56 115 -25 42 -40 80 -39 100 0 29 1 30 10 7 7 -17 14
-21 27 -16z m2294 -2 c31 -52 89 -113 108 -113 11 0 23 8 29 17 8 14 11 12 24
-18 20 -49 73 -106 119 -130 43 -22 47 -33 19 -49 -57 -30 -140 7 -236 105
-62 64 -122 148 -141 198 -5 14 0 17 28 17 26 0 37 -6 50 -27z m-2334 -80 c31
-44 68 -123 85 -180 l16 -52 -156 -3 -155 -3 5 55 c3 30 13 79 22 108 13 44
19 51 30 42 20 -17 35 -4 35 31 0 28 1 29 49 29 43 0 52 -4 69 -27z m3319 -99
c-3 -3 -12 -4 -19 -1 -8 3 -5 6 6 6 11 1 17 -2 13 -5z m132 -113 c25 -21 71
-51 101 -67 l55 -29 -59 -3 c-33 -2 -72 2 -87 9 -41 16 -63 5 -54 -28 l6 -26
-66 6 c-36 4 -91 14 -121 24 -61 19 -67 34 -39 99 l15 36 35 -31 c49 -43 79
-41 124 8 20 22 38 40 40 40 2 1 24 -16 50 -38z m-3363 -67 c-15 -10 -52 -14
-146 -14 -116 0 -150 7 -150 30 0 3 71 4 157 2 140 -3 156 -5 139 -18z m3564
-81 c-35 -61 -164 -91 -311 -73 -134 16 -179 35 -179 76 0 23 0 23 43 8 57
-20 171 -34 205 -25 20 6 26 13 24 31 -2 18 1 21 15 15 36 -15 119 -16 158 -3
49 18 65 7 45 -29z m-2865 -85 c-11 -52 -35 -241 -35 -277 0 -23 12 -60 31
-96 35 -65 32 -80 -6 -39 -68 73 -78 137 -45 264 11 41 20 89 20 107 0 42 9
63 26 63 10 0 13 -7 9 -22z m83 14 c8 -6 15 -44 19 -110 l6 -102 -26 0 c-14 0
-32 -3 -41 -6 -29 -11 -16 -24 24 -24 50 0 57 -27 8 -32 -17 -2 -33 -9 -36
-17 -3 -10 4 -12 32 -9 46 5 82 -27 72 -66 -6 -26 -69 -71 -86 -61 -20 12 -60
93 -63 126 -1 19 7 96 17 172 18 126 21 137 40 137 12 0 27 -4 34 -8z m371
-398 c25 -52 22 -58 -31 -76 -21 -7 -36 -17 -35 -23 3 -13 43 -7 79 11 28 15
48 12 48 -7 0 -6 -16 -17 -35 -25 -34 -14 -47 -34 -22 -34 7 0 31 9 52 20 46
23 76 20 54 -6 -7 -9 -24 -20 -37 -25 -13 -5 -20 -13 -17 -19 10 -17 32 -11
64 15 l30 26 51 -49 c30 -29 50 -57 50 -70 0 -19 -6 -22 -41 -22 -100 0 -236
56 -323 133 l-48 42 7 66 7 66 57 10 c31 6 58 11 62 12 3 0 15 -20 28 -45z
m2899 14 c-3 -30 -6 -33 -39 -36 -35 -3 -37 -2 -41 32 l-4 36 44 0 c43 0 43 0
40 -32z m842 -58 c0 -36 -4 -50 -14 -50 -7 0 -19 -6 -25 -14 -30 -36 -71 11
-71 80 l0 34 55 0 55 0 0 -50z m-857 -30 c3 -13 11 -18 20 -14 11 4 13 -1 9
-21 -2 -14 1 -59 7 -100 18 -109 13 -115 -98 -115 -114 0 -118 5 -95 97 20 79
50 153 62 153 4 0 13 -5 19 -11 8 -8 14 -5 22 10 15 27 47 27 54 1z m877 -64
c0 -15 90 -86 109 -86 24 0 9 21 -40 57 -75 56 -36 53 80 -7 96 -49 161 -104
161 -135 0 -22 -70 -27 -280 -18 l-195 8 -3 30 c-5 38 6 126 18 145 8 13 15
12 55 -3 46 -16 47 -16 52 3 6 23 43 28 43 6z m-3786 -108 c64 -33 141 -56
208 -64 55 -6 59 -8 43 -20 -78 -58 -395 73 -395 162 0 24 2 23 52 -16 28 -23
70 -51 92 -62z"/>
<path d="M5200 9173 c-121 -19 -260 -65 -360 -120 -90 -50 -93 -52 -78 -72 11
-14 11 -14 -4 -3 -14 11 -21 11 -43 -4 -21 -14 -23 -19 -13 -33 11 -14 11 -14
-4 -3 -14 11 -21 8 -52 -19 -20 -17 -33 -36 -29 -42 3 -5 1 -7 -4 -4 -13 8
-46 -27 -36 -37 5 -4 2 -6 -6 -4 -17 4 -133 -142 -126 -160 3 -7 1 -11 -4 -8
-11 7 -54 -72 -45 -86 4 -6 3 -8 -3 -5 -13 8 -44 -63 -77 -176 -65 -222 -54
-465 30 -690 16 -40 30 -64 36 -60 7 3 8 1 4 -5 -7 -12 30 -92 59 -127 9 -11
13 -14 9 -6 -5 9 -3 12 5 7 6 -4 9 -12 6 -17 -12 -19 130 -183 148 -172 6 3 7
1 4 -4 -9 -14 61 -75 75 -67 6 4 8 3 5 -3 -9 -14 80 -76 95 -67 6 4 8 3 5 -3
-8 -13 50 -46 65 -37 6 4 8 3 5 -4 -8 -12 113 -64 221 -95 66 -18 104 -21 267
-21 128 -1 205 4 235 12 25 8 69 20 98 29 29 8 50 18 47 23 -3 4 3 6 12 4 23
-5 169 71 165 86 -1 6 2 9 8 5 14 -9 52 14 44 27 -4 7 -3 8 5 4 22 -14 210
152 196 173 -2 5 3 15 13 22 16 13 16 13 2 -6 -14 -18 -14 -19 2 -6 33 25 131
179 123 192 -5 7 -4 10 2 6 15 -9 70 119 101 233 23 85 26 113 26 270 0 158
-3 185 -27 275 -29 110 -125 312 -146 307 -7 -1 -10 2 -6 8 9 14 -55 101 -69
93 -6 -3 -8 -3 -4 2 10 10 -11 37 -23 29 -5 -3 -6 1 -3 9 6 17 -74 90 -89 80
-5 -3 -7 -1 -3 5 12 19 -174 149 -195 136 -7 -4 -9 -3 -6 3 13 21 -183 96
-312 118 -76 14 -287 18 -351 8z m-73 -219 c-3 -3 -12 -4 -19 -1 -8 3 -5 6 6
6 11 1 17 -2 13 -5z m9 -49 c12 -8 32 -38 45 -67 21 -48 24 -72 29 -250 4
-178 7 -199 26 -225 28 -38 101 -74 143 -71 58 5 48 25 -14 30 -47 4 -62 10
-88 37 l-32 31 -5 179 c-6 215 -2 247 35 279 59 50 136 5 196 -116 37 -75 47
-151 48 -345 1 -156 16 -187 92 -187 18 0 39 10 54 25 22 21 25 33 25 95 0 56
-3 70 -15 70 -12 0 -15 -14 -15 -68 0 -40 -5 -73 -12 -80 -16 -16 -73 -15 -87
2 -7 8 -14 85 -18 200 l-6 187 28 29 c43 45 87 56 141 35 52 -20 75 -49 102
-130 48 -143 79 -454 68 -700 -16 -393 -25 -548 -34 -557 -14 -14 -142 -55
-214 -69 -73 -14 -278 -18 -360 -6 l-56 8 1 112 c2 104 0 115 -25 162 -37 67
-39 69 -228 234 -221 193 -258 229 -283 276 -20 37 -22 57 -25 262 -3 195 -2
226 14 258 12 26 60 71 161 151 78 63 147 114 151 114 17 0 52 -47 58 -77 9
-47 -32 -127 -105 -205 -33 -36 -61 -68 -61 -71 0 -4 12 -27 28 -52 21 -37 41
-54 93 -80 140 -72 242 -182 331 -362 47 -96 68 -123 68 -89 0 8 -22 58 -50
113 -90 178 -190 287 -329 358 -45 23 -73 45 -89 70 l-23 36 58 64 58 63 6
-49 c17 -126 91 -215 171 -207 49 5 48 28 -1 28 -31 0 -49 7 -76 31 -59 52
-78 154 -60 326 7 60 6 62 -29 101 l-37 40 34 36 c38 40 77 47 113 21z m124
-19 c0 -2 -8 -10 -17 -17 -16 -13 -17 -12 -4 4 13 16 21 21 21 13z m-35 -36
c3 -5 1 -10 -4 -10 -6 0 -11 5 -11 10 0 6 2 10 4 10 3 0 8 -4 11 -10z m-315
-44 c0 -2 -8 -10 -17 -17 -16 -13 -17 -12 -4 4 13 16 21 21 21 13z m767 -62
c-3 -3 -12 -4 -19 -1 -8 3 -5 6 6 6 11 1 17 -2 13 -5z m-857 -8 c0 -2 -8 -10
-17 -17 -16 -13 -17 -12 -4 4 13 16 21 21 21 13z m975 -53 l18 -28 -21 19
c-12 11 -22 23 -22 28 0 14 7 9 25 -19z m-1178 -495 c-2 -18 -4 -6 -4 27 0 33
2 48 4 33 2 -15 2 -42 0 -60z m1290 15 c-3 -10 -5 -4 -5 12 0 17 2 24 5 18 2
-7 2 -21 0 -30z m-1290 -90 c-3 -10 -5 -4 -5 12 0 17 2 24 5 18 2 -7 2 -21 0
-30z m1300 -185 c-2 -24 -4 -7 -4 37 0 44 2 63 4 43 2 -21 2 -57 0 -80z
m-1146 -55 c13 -16 12 -17 -3 -4 -10 7 -18 15 -18 17 0 8 8 3 21 -13z m1146
-40 c-3 -10 -5 -4 -5 12 0 17 2 24 5 18 2 -7 2 -21 0 -30z m-976 -110 c13 -16
12 -17 -3 -4 -10 7 -18 15 -18 17 0 8 8 3 21 -13z m966 -20 c-3 -10 -5 -4 -5
12 0 17 2 24 5 18 2 -7 2 -21 0 -30z m-1473 -139 c3 -8 2 -12 -4 -9 -6 3 -10
10 -10 16 0 14 7 11 14 -7z m1463 -121 c-2 -21 -4 -6 -4 32 0 39 2 55 4 38 2
-18 2 -50 0 -70z m-720 -15 c-3 -8 -6 -5 -6 6 -1 11 2 17 5 13 3 -3 4 -12 1
-19z m0 -130 c-3 -8 -6 -5 -6 6 -1 11 2 17 5 13 3 -3 4 -12 1 -19z m480 -94
c-3 -3 -12 -4 -19 -1 -8 3 -5 6 6 6 11 1 17 -2 13 -5z m-364 -11 c-7 -2 -19
-2 -25 0 -7 3 -2 5 12 5 14 0 19 -2 13 -5z m300 0 c-7 -2 -19 -2 -25 0 -7 3
-2 5 12 5 14 0 19 -2 13 -5z m-155 -10 c-16 -2 -40 -2 -55 0 -16 2 -3 4 27 4
30 0 43 -2 28 -4z"/>
<path d="M2877 8022 l-58 -3 6 -47 c2 -26 7 -104 11 -173 l6 -126 43 1 43 0 7
173 c4 96 6 175 4 176 -2 1 -30 1 -62 -1z"/>
<path d="M2835 7590 c-23 -25 -13 -67 21 -82 57 -26 119 37 79 82 -24 26 -76
26 -100 0z"/>
<path d="M8155 7042 c-17 -10 -43 -42 -58 -70 -99 -182 -66 -561 73 -848 97
-200 224 -288 327 -225 40 25 89 125 103 211 18 117 8 339 -16 347 -8 3 -10
-40 -6 -154 4 -127 1 -171 -12 -222 -22 -86 -54 -141 -94 -164 -30 -17 -38
-18 -75 -7 -73 21 -167 134 -226 273 l-20 47 66 30 c37 17 75 38 84 46 53 48
15 253 -56 300 -20 13 -39 14 -100 9 l-75 -7 0 95 c0 113 13 184 47 250 24 48
72 87 106 87 59 0 159 -92 216 -200 23 -42 36 -59 43 -52 26 26 -118 224 -186
256 -45 21 -104 20 -141 -2z m102 -491 c40 -59 54 -194 24 -224 -32 -32 -82
57 -89 160 -7 105 20 131 65 64z"/>
<path d="M1800 6697 c0 -39 299 -104 384 -83 53 13 23 24 -81 29 -97 4 -208
28 -285 62 -13 5 -18 3 -18 -8z"/>
<path d="M6135 2340 c-3 -5 0 -13 8 -16 23 -8 102 0 102 11 0 14 -102 19 -110
5z"/>
<path d="M6100 2244 c0 -28 172 -32 178 -4 2 12 -13 15 -88 16 -66 0 -90 -3
-90 -12z"/>
<path d="M6985 2260 c-4 -6 -5 -14 -2 -17 16 -15 347 -29 395 -17 56 15 5 25
-148 28 -91 2 -181 7 -201 11 -24 4 -39 3 -44 -5z"/>
<path d="M3200 8805 c0 -33 4 -45 15 -45 11 0 15 12 15 45 0 33 -4 45 -15 45
-11 0 -15 -12 -15 -45z"/>
<path d="M3090 8725 c0 -11 12 -15 45 -15 33 0 45 4 45 15 0 11 -12 15 -45 15
-33 0 -45 -4 -45 -15z"/>
<path d="M3250 8725 c0 -11 12 -15 45 -15 33 0 45 4 45 15 0 11 -12 15 -45 15
-33 0 -45 -4 -45 -15z"/>
<path d="M3200 8645 c0 -33 4 -45 15 -45 11 0 15 12 15 45 0 33 -4 45 -15 45
-11 0 -15 -12 -15 -45z"/>
<path d="M7255 8238 c-36 -19 -55 -52 -55 -94 0 -98 104 -141 177 -72 81 76
-24 220 -122 166z m94 -35 c11 -10 24 -32 27 -50 5 -27 1 -37 -25 -64 -26 -25
-37 -30 -59 -24 -58 14 -83 65 -57 114 8 16 20 31 27 34 27 11 67 6 87 -10z"/>
<path d="M7670 7925 c0 -33 4 -45 13 -42 7 2 12 20 12 42 0 22 -5 40 -12 43
-9 2 -13 -10 -13 -43z"/>
<path d="M7555 7850 c-3 -6 0 -13 8 -16 24 -9 80 0 85 14 5 15 -84 17 -93 2z"/>
<path d="M7715 7850 c-3 -6 0 -13 8 -16 24 -9 80 0 85 14 5 15 -84 17 -93 2z"/>
<path d="M7670 7764 c0 -59 24 -55 28 4 2 33 0 42 -12 42 -12 0 -16 -11 -16
-46z"/>
<path d="M3866 6403 c-152 -163 -276 -301 -276 -305 0 -4 6 -8 13 -8 14 0 550
576 555 597 2 7 -1 13 -7 13 -5 0 -134 -134 -285 -297z"/>
<path d="M3696 6508 c-45 -72 -176 -309 -176 -318 0 -34 35 13 118 159 50 90
92 167 92 172 0 17 -20 9 -34 -13z"/>
<path d="M0 400 l0 -400 5000 0 5000 0 0 400 0 400 -5000 0 -5000 0 0 -400z
m2192 123 c23 -20 23 -57 1 -74 -15 -11 -16 -11 -5 1 27 31 11 72 -33 83 -19
4 -19 5 -1 6 11 0 28 -6 38 -16z m-69 -8 c-3 -9 -8 -14 -10 -11 -3 3 -2 9 2
15 9 16 15 13 8 -4z m-1760 -114 c22 -61 43 -108 47 -104 4 4 24 56 45 116 21
59 42 107 47 107 11 0 9 -5 -42 -149 -23 -64 -44 -107 -53 -109 -15 -3 -17 0
-67 143 -15 44 -31 88 -36 99 -5 13 -3 17 6 14 8 -2 32 -55 53 -117z m517 89
c0 -23 4 -30 20 -30 11 0 20 -4 20 -10 0 -5 -10 -10 -21 -10 -20 0 -21 -4 -17
-71 3 -55 8 -74 23 -85 23 -17 14 -29 -13 -15 -11 6 -22 25 -26 42 -10 51 -7
209 4 209 6 0 10 -13 10 -30z m515 16 c25 -11 33 -19 29 -30 -7 -19 -5 -19
-40 -1 -36 18 -55 19 -78 2 -28 -21 -9 -45 49 -62 87 -25 108 -74 54 -127 -29
-29 -33 -30 -90 -25 -68 6 -72 8 -64 29 5 13 12 14 40 5 50 -15 100 1 100 33
0 16 -8 28 -25 36 -87 40 -105 51 -108 67 -14 70 53 106 133 73z m105 -16 c0
-25 4 -30 25 -30 16 0 25 -6 25 -15 0 -9 -9 -15 -25 -15 -24 0 -25 -3 -25 -60
0 -55 2 -62 25 -72 14 -6 25 -15 25 -20 0 -18 -31 -20 -55 -4 -24 16 -25 20
-25 131 0 96 3 115 15 115 10 0 15 -10 15 -30z m482 -32 l3 -62 36 32 c20 18
45 32 55 32 14 0 9 -9 -21 -40 l-39 -40 42 -60 c40 -57 41 -60 20 -60 -16 0
-32 14 -53 45 -16 25 -33 45 -37 45 -5 0 -8 -20 -8 -45 0 -38 -3 -45 -20 -45
-19 0 -20 7 -20 130 0 122 1 130 20 130 16 0 19 -8 22 -62z m193 30 c1 -20 -2
-24 -11 -17 -8 7 -14 6 -17 -3 -3 -7 -6 2 -6 20 -1 27 3 33 17 30 11 -2 17
-13 17 -30z m-44 -35 c13 -16 12 -17 -3 -4 -17 13 -22 21 -14 21 2 0 10 -8 17
-17z m-1502 -19 c12 -15 21 -40 21 -55 0 -29 0 -29 -65 -29 -72 0 -83 -12 -44
-51 17 -17 30 -20 65 -16 43 4 59 -5 28 -17 -45 -17 -106 3 -123 41 -45 98 56
206 118 127z m191 16 c17 -11 10 -13 -40 -10 -47 2 -75 -28 -75 -80 0 -55 26
-80 82 -80 27 0 42 -4 38 -10 -9 -15 -78 -12 -102 5 -50 35 -50 135 0 170 24
17 74 20 97 5z m265 -13 c20 -16 28 -35 32 -69 5 -42 3 -50 -25 -78 -41 -41
-83 -41 -124 0 -28 28 -30 36 -25 78 9 82 84 119 142 69z m85 7 c0 -14 2 -14
22 0 24 17 38 20 38 9 0 -5 -14 -16 -30 -25 -29 -17 -30 -19 -30 -93 0 -43 -4
-75 -10 -75 -6 0 -10 40 -10 100 0 60 4 100 10 100 6 0 10 -7 10 -16z m537 1
c30 -21 44 -75 32 -120 -25 -88 -143 -88 -168 0 -20 72 20 135 84 135 17 0 40
-7 52 -15z m198 -5 c0 -10 -8 -14 -27 -12 -58 6 -91 -42 -67 -100 11 -28 36
-40 74 -35 12 1 20 -4 20 -13 0 -19 -48 -25 -85 -10 -63 26 -68 148 -6 179 31
15 91 9 91 -9z m5424 -83 c8 -26 17 -47 21 -47 4 0 13 21 21 47 8 25 20 48 26
50 8 3 4 -21 -11 -64 -13 -38 -29 -68 -36 -68 -7 0 -23 30 -36 68 -15 43 -19
67 -11 64 6 -2 18 -25 26 -50z m638 36 c3 -8 -6 -11 -23 -10 -35 3 -43 -20
-10 -32 36 -14 50 -45 30 -65 -16 -17 -33 -20 -58 -10 -28 11 -17 24 14 18 22
-5 30 -3 30 8 0 8 -13 24 -30 36 -32 24 -37 41 -18 60 15 15 60 12 65 -5z
m333 -18 c0 -37 10 -44 30 -20 7 8 17 15 22 15 6 0 5 -7 -2 -15 -12 -14 -11
-29 5 -67 11 -27 -10 -21 -25 7 -7 14 -17 25 -22 25 -4 0 -8 -11 -8 -25 0 -14
-4 -25 -10 -25 -6 0 -10 30 -10 70 0 40 4 70 10 70 6 0 10 -16 10 -35z m580
32 c0 -4 -34 -104 -45 -136 -3 -8 -8 -11 -11 -8 -8 7 38 147 48 147 4 0 8 -2
8 -3z m100 -11 c0 -7 -7 -19 -15 -26 -13 -11 -12 -14 6 -29 40 -32 0 -82 -51
-66 -31 10 -24 23 13 21 38 -1 44 22 10 39 l-22 11 22 22 21 22 -32 0 c-17 0
-32 5 -32 10 0 6 18 10 40 10 27 0 40 -4 40 -14z m104 -2 c20 -20 20 -73 0
-102 -15 -22 -64 -31 -64 -12 0 6 8 10 18 10 18 0 42 18 42 31 0 4 -9 5 -20 2
-26 -7 -50 13 -50 41 0 43 44 61 74 30z m126 11 c0 -6 -60 -127 -66 -134 -2
-2 -7 -2 -10 1 -3 3 6 29 20 57 14 28 26 53 26 56 0 3 -13 5 -30 5 -16 0 -30
5 -30 10 0 6 20 10 45 10 25 0 45 -2 45 -5z m96 -20 c42 -64 -27 -155 -70 -93
-31 43 -9 118 34 118 11 0 27 -11 36 -25z m84 -35 c0 -47 3 -60 15 -60 8 0 15
-4 15 -10 0 -5 -18 -10 -40 -10 -22 0 -40 5 -40 10 0 6 7 10 15 10 11 0 15 12
15 45 0 38 -2 43 -17 38 -16 -6 -16 -4 1 15 29 34 36 27 36 -38z m90 0 c0 -47
3 -60 15 -60 8 0 15 -4 15 -10 0 -5 -18 -10 -40 -10 -22 0 -40 5 -40 10 0 6 7
10 15 10 11 0 15 12 15 45 0 38 -2 43 -17 38 -16 -6 -16 -4 1 15 29 34 36 27
36 -38z m120 46 c0 -7 -7 -19 -15 -26 -13 -11 -12 -14 6 -29 40 -32 0 -82 -51
-66 -31 10 -24 23 13 21 38 -1 44 22 9 40 -20 10 -21 13 -7 24 22 18 18 30
-10 30 -14 0 -25 5 -25 10 0 6 18 10 40 10 27 0 40 -4 40 -14z m120 9 c0 -6
-60 -127 -66 -134 -2 -2 -7 -2 -10 1 -3 3 6 29 20 57 14 28 26 53 26 56 0 3
-13 5 -30 5 -16 0 -30 5 -30 10 0 6 20 10 45 10 25 0 45 -2 45 -5z m-2052 -32
c12 -12 13 -18 4 -21 -14 -4 -17 -62 -2 -62 6 0 10 -5 10 -11 0 -6 -8 -9 -17
-7 -25 5 -40 118 -16 118 2 0 12 -8 21 -17z m360 0 c12 -12 13 -18 4 -21 -14
-4 -17 -62 -2 -62 6 0 10 -5 10 -11 0 -6 -8 -9 -17 -7 -25 5 -40 118 -16 118
2 0 12 -8 21 -17z m-528 -22 c15 -29 13 -31 -26 -31 -24 0 -34 -4 -31 -12 2
-7 16 -13 30 -13 15 1 27 -3 27 -7 0 -16 -31 -21 -56 -10 -27 13 -34 58 -12
80 18 18 56 14 68 -7z m107 4 c2 -6 -9 -11 -24 -10 -23 0 -28 -4 -28 -25 0
-21 5 -25 28 -25 15 1 26 -4 24 -10 -5 -15 -46 -18 -63 -5 -17 15 -18 62 -2
78 15 15 60 12 65 -3z m177 -1 c9 -8 16 -24 16 -34 0 -22 -26 -50 -46 -50 -32
0 -54 21 -54 50 0 45 52 66 84 34z m56 5 c0 -8 5 -7 15 1 24 20 29 4 6 -19
-12 -12 -21 -32 -21 -46 0 -14 -4 -25 -10 -25 -5 0 -10 23 -10 50 0 28 5 50
10 50 6 0 10 -5 10 -11z m304 -5 c9 -8 16 -24 16 -34 0 -22 -26 -50 -46 -50
-32 0 -54 21 -54 50 0 45 52 66 84 34z m113 1 c2 -6 -9 -11 -24 -10 -23 0 -28
-4 -28 -25 0 -21 5 -25 28 -25 15 1 26 -4 24 -10 -5 -15 -46 -18 -63 -5 -20
17 -18 67 4 79 20 13 54 10 59 -4z m250 0 c2 -6 -9 -11 -24 -10 -23 0 -28 -4
-28 -25 0 -21 5 -25 28 -25 15 1 27 -3 27 -7 0 -16 -31 -21 -56 -10 -29 14
-34 65 -6 81 20 13 54 10 59 -4z m107 -1 c9 -8 16 -24 16 -34 0 -22 -26 -50
-46 -50 -32 0 -54 21 -54 50 0 45 52 66 84 34z m56 6 c0 -6 8 -5 20 2 15 9 22
10 31 1 8 -8 16 -9 29 -1 32 20 50 3 50 -47 0 -25 -4 -45 -10 -45 -5 0 -10 18
-10 41 0 33 -3 40 -17 37 -13 -2 -19 -14 -21 -41 -4 -47 -22 -49 -22 -3 0 19
-5 38 -10 41 -18 11 -40 -15 -40 -46 0 -16 -4 -29 -10 -29 -5 0 -10 23 -10 50
0 28 5 50 10 50 6 0 10 -5 10 -10z m-270 -80 c0 -5 -4 -10 -10 -10 -5 0 -10 5
-10 10 0 6 5 10 10 10 6 0 10 -4 10 -10z"/>
<path d="M2150 500 c0 -5 5 -10 10 -10 6 0 10 5 10 10 0 6 -4 10 -10 10 -5 0
-10 -4 -10 -10z"/>
<path d="M536 418 c-28 -39 -21 -48 39 -48 59 0 67 9 45 51 -15 27 -64 25 -84
-3z"/>
<path d="M986 424 c-50 -50 -21 -144 44 -144 48 0 80 50 66 104 -13 53 -75 75
-110 40z"/>
<path d="M1616 408 c-32 -46 -8 -118 39 -118 28 0 55 34 55 70 0 36 -27 70
-55 70 -13 0 -31 -10 -39 -22z"/>
<path d="M9034 375 c-4 -9 -2 -21 4 -27 15 -15 44 -1 40 19 -4 23 -36 29 -44
8z"/>
<path d="M9252 378 c-17 -17 -15 -63 4 -79 14 -11 18 -10 30 6 17 22 18 40 4
66 -12 22 -21 24 -38 7z"/>
<path d="M7448 343 c6 -2 18 -2 25 0 6 3 1 5 -13 5 -14 0 -19 -2 -12 -5z"/>
<path d="M7724 336 c-10 -26 4 -48 28 -44 17 2 23 10 23 28 0 18 -6 26 -23 28
-13 2 -25 -3 -28 -12z"/>
<path d="M8084 336 c-10 -26 4 -48 28 -44 17 2 23 10 23 28 0 18 -6 26 -23 28
-13 2 -25 -3 -28 -12z"/>
<path d="M8554 336 c-10 -26 4 -48 28 -44 17 2 23 10 23 28 0 18 -6 26 -23 28
-13 2 -25 -3 -28 -12z"/>
</g>
</svg>
